<?xml version="1.0" encoding="utf-8"?>
<!-- Generator: Adobe Illustrator 24.2.0, SVG Export Plug-In . SVG Version: 6.00 Build 0)  -->
<svg version="1.1" id="Layer_1" xmlns="http://www.w3.org/2000/svg" xmlns:xlink="http://www.w3.org/1999/xlink" x="0px" y="0px"
	 viewBox="0 0 350 225" style="enable-background:new 0 0 350 225;" xml:space="preserve">
<style type="text/css">
	.st0{fill:#FFFFFF;}
	.st1{fill:#FEFEFE;}
	.st2{fill:#FCFCFC;}
</style>
<g>
	<path class="st0" d="M92.3,107c0-0.9,0-1.6,0-2.3c0-6.8-0.1-13.5,0.1-20.3c0.3-9.3,6.5-16.9,15.5-19.1c1.5-0.4,3.1-0.6,4.7-0.6
		c6.6-0.1,13.3,0,19.9,0c2.8,0,4.7,1.6,4.7,4.1c0,2.3-1.9,3.9-4.6,3.9c-6.5,0-12.9,0-19.4,0c-7.2,0-12.5,4.9-12.8,12
		c-0.2,7.1-0.1,14.2-0.1,21.3c0,0.2,0.1,0.4,0.2,0.8c1.5,0,3,0,4.6,0c0-1.5,0-3,0-4.4c0-4.2,0-8.4,0-12.6c0-2.8,1.6-4.5,4-4.5
		c2.4,0,4,1.7,4,4.5c0,5,0,10,0,15c0,0.6,0,1.3,0,2c8.1,0,16.1,0,24.3,0c0-0.7,0-1.4,0-2.1c0.1-8.2-0.1-16.5,0.3-24.7
		c0.4-9.6,8.4-18.1,17.9-19.7c1.4-0.2,2.9-0.3,4.3-0.4c10,0,20,0.2,29.9-0.1c11.8-0.3,23,9.1,22.9,22.8c0,7.3,0,14.6,0,21.9
		c0,0.6,0,1.3,0,2.1c8.1,0,16,0,24.2,0c0-0.6,0.1-1.2,0.1-1.8c0-5.1,0-10.1,0-15.2c0-2.8,1.5-4.5,4-4.5c2.4,0,4,1.7,4,4.5
		c0,5,0,10,0,15c0,0.6,0,1.3,0,1.8c0.3,0.2,0.4,0.3,0.5,0.3c4.3,0.3,4.3,0.3,4.3-4c0-5.7-0.1-11.3,0-17c0.1-8.6-6.7-13.6-13.2-13.3
		c-6.5,0.3-12.9,0.1-19.4,0c-2.3,0-3.9-1.4-4.2-3.4c-0.3-1.8,0.8-3.6,2.5-4.3c0.5-0.2,1.1-0.3,1.7-0.3c7.1,0,14.1-0.1,21.2,0
		c10,0.2,19,8.8,19.3,18.8c0.2,7,0.1,14.1,0.1,21.2c0,0.7,0,1.4,0,2.3c0.8,0,1.5,0,2.1,0c12.1,0,24.1,0,36.2,0c3.6,0,5,1.3,5,4.9
		c0,29.6,0,59.1,0,88.7c0,3.7-1.4,5.1-5.1,5.1c-80.6,0-161.2,0-241.8,0c-3.7,0-5.1-1.4-5.1-5.1c0-29.6,0-59.1,0-88.7
		c0-3.6,1.3-5,4.9-5c12,0,24,0,36,0C90.7,107,91.3,107,92.3,107z M57.2,115c0,27.6,0,55.1,0,82.6c78.7,0,157.2,0,235.7,0
		c0-27.6,0-55,0-82.6C214.2,115,135.7,115,57.2,115z M159.5,106.9c10.5,0,20.6,0,31,0c0-0.8,0-1.4,0-2c0-5.5,0-11.1,0-16.6
		c0-0.8,0-1.5,0.2-2.3c0.4-1.7,1.8-2.9,3.5-3c1.7-0.1,3.1,0.6,3.8,2.2c0.3,0.8,0.5,1.7,0.5,2.5c0,5.8,0,11.7,0,17.5
		c0,0.6,0.5,1.7,0.8,1.7c1.8,0.2,3.6,0.1,5.5,0.1c0-0.9,0-1.5,0-2c0-7.4,0-14.8,0-22.2c0-8.3-6-14.6-14.3-14.7
		c-10.3-0.1-20.5-0.1-30.8,0c-8.3,0.1-14.3,6.4-14.3,14.7c0,7.5,0,14.9,0,22.4c0,0.6,0.1,1.1,0.1,1.8c2.1,0,4,0,6.2,0
		c0-0.7,0-1.4,0-2c0-5.8,0-11.7,0-17.5c0-1.9,0.7-3.3,2.4-4.1c2.7-1.2,5.5,0.8,5.5,4c0.1,4.7,0,9.3,0,14
		C159.5,103.2,159.5,105,159.5,106.9z"/>
	<path class="st0" d="M155.6,37.7c0-10.6,8.6-19.4,19.3-19.5c10.7-0.1,19.4,8.6,19.5,19.3c0.1,10.7-8.6,19.5-19.3,19.5
		C164.3,57.1,155.6,48.4,155.6,37.7z M174.9,49c6.4,0,11.5-5,11.6-11.3c0.1-6.3-5.1-11.5-11.4-11.5c-6.4,0-11.5,5-11.6,11.3
		C163.4,43.8,168.5,49,174.9,49z"/>
	<path class="st0" d="M108.8,44.9c0-10,7.9-18,17.9-18c9.8,0,17.9,8,17.9,17.9c0,9.8-7.9,17.8-17.7,17.8
		C116.7,62.7,108.8,54.9,108.8,44.9z M136.5,45c0-5.6-4.3-10.1-9.9-10.1c-5.6,0-10.1,4.5-10.1,10c0,5.4,4.5,9.8,9.9,10
		C131.9,54.9,136.5,50.4,136.5,45z"/>
	<path class="st0" d="M241.2,44.9c0,10-8,17.8-18.1,17.7c-9.8,0-17.7-8.1-17.7-18c0-9.8,8.2-17.7,18.1-17.7
		C233.4,27,241.3,35,241.2,44.9z M213.5,44.9c0,5.5,4.4,9.9,9.8,9.9c5.5,0,10.1-4.6,10.1-10c0-5.5-4.5-9.9-10.1-9.9
		C217.8,34.9,213.5,39.3,213.5,44.9z"/>
	<path class="st0" d="M191.9,151.7c0.8-2.6,1.6-5.2,2.3-7.8c1.2-4.3,2.4-8.6,3.7-12.9c0.7-2.5,2.2-3.7,4.3-3.6
		c2.1,0.1,3.4,1.4,3.8,4.1c1.5,9.8,3,19.7,4.4,29.5c1,6.6,2,13.1,2.9,19.7c0.4,2.6-1.1,4.4-3.4,4.8c-2.1,0.3-3.9-1.2-4.3-3.8
		c-1.4-9.2-2.8-18.4-4.2-27.6c-0.1-0.9-0.3-1.7-0.8-2.7c-0.2,0.5-0.5,1-0.6,1.6c-1.4,4.9-2.8,9.7-4.2,14.6c-0.7,2.3-2,3.4-4.1,3.4
		c-1.9,0-3.3-1.2-3.9-3.4c-1.4-5-2.9-9.9-4.3-14.9c-0.1-0.5-0.3-0.9-0.8-1.4c-0.4,2.7-0.9,5.3-1.3,8c-1.1,7.4-2.2,14.9-3.3,22.3
		c-0.4,2.6-2.3,4.3-4.4,4c-2.5-0.4-3.9-2.4-3.4-5.3c2.3-15.7,4.6-31.3,7-47c0.1-0.7,0.2-1.4,0.3-2.1c0.3-2.1,1.7-3.5,3.6-3.7
		c2-0.2,3.7,0.9,4.3,3.1c1.6,5.5,3.1,10.9,4.7,16.4c0.5,1.6,1,3.2,1.4,4.8C191.6,151.6,191.8,151.7,191.9,151.7z"/>
	<path class="st1" d="M246.4,144.8c0,1.3,0,2.5,0,3.8c0,10.7,0,21.3,0,32c0,2.8-1.6,4.8-3.9,4.8c-2.4,0-4.1-1.9-4.1-4.7
		c0-16.2,0-32.3,0-48.5c0-2.6,0.9-4.1,2.8-4.7c1.8-0.6,3.5,0.1,5,2.2c8.8,12.5,17.6,25,26.4,37.4c0.2,0.3,0.5,0.6,1.2,0.9
		c0-0.6,0-1.2,0-1.8c0-11.5,0-23,0-34.5c0-3,2.1-4.9,4.7-4.4c2,0.4,3.3,2,3.3,4.5c0,11.8,0,23.6,0,35.3c0,4.4,0,8.7,0,13.1
		c0,2.8-0.8,4.1-2.9,4.8c-1.9,0.6-3.4,0-5-2.3c-8.6-12.2-17.2-24.5-25.9-36.7c-0.4-0.5-0.8-1.1-1.2-1.6
		C246.7,144.7,246.5,144.7,246.4,144.8z"/>
	<path class="st0" d="M119.2,156.3c0-7.9,0-15.9,0-23.8c0-3.8,1.3-5.1,5.1-5.1c4.6,0,9.2,0,13.8,0c13.4,0.1,24.3,10.9,24.3,24.4
		c0,4.5,0.2,9-0.4,13.4c-1.4,10.4-10.8,19.2-21.1,19.9c-5.8,0.4-11.6,0.3-17.5,0.3c-2.7,0-4.2-1.7-4.2-4.5
		C119.2,172.7,119.2,164.5,119.2,156.3C119.2,156.3,119.2,156.3,119.2,156.3z M127.2,135.6c0,13.9,0,27.8,0,41.8c3.5,0,6.9,0,10.3,0
		c9.6,0,16.7-6.9,17-16.5c0.1-3,0.1-5.9,0-8.9c-0.2-8.2-5.3-15-13.1-16.3C136.8,135,132,135.6,127.2,135.6z"/>
	<path class="st0" d="M89.7,127.1c2.2,0.3,3.4,1.3,4.2,3.5c4.7,13.2,9.3,26.3,13.9,39.5c1.1,3.1,2.2,6.2,3.3,9.4
		c0.9,2.7,0.1,4.9-2.3,5.7c-2.4,0.8-4.3-0.4-5.3-3.2c-1.1-3-2.2-6-3.2-9.1c-0.4-1.2-1-1.5-2.1-1.5c-5.6,0.1-11.2,0.1-16.8,0
		c-1.1,0-1.6,0.3-2,1.4c-1,3.1-2.1,6.2-3.2,9.2c-0.9,2.7-2.9,3.9-5.2,3.1c-2.5-0.8-3.4-2.9-2.4-5.8c5.5-15.6,11-31.1,16.5-46.7
		c0.5-1.3,0.9-2.7,1.7-3.8C87.5,128.1,88.7,127.7,89.7,127.1z M90.2,144c-0.2,0-0.4,0-0.6,0c-2.3,6.5-4.6,12.9-6.9,19.5
		c4.9,0,9.5,0,14.3,0C94.8,156.9,92.5,150.5,90.2,144z"/>
	<path class="st2" d="M229.3,156.5c0,8.3,0,16.6,0,24.8c0,3.2-3,5-5.7,3.7c-1.5-0.8-2.2-2-2.2-3.7c0-3.3,0-6.5,0-9.8
		c0-13.2,0-26.3,0-39.5c0-2.8,1.4-4.5,3.7-4.6c2.5-0.1,4.2,1.6,4.2,4.3c0,7.8,0,15.5,0,23.3C229.3,155.4,229.3,156,229.3,156.5
		C229.3,156.5,229.3,156.5,229.3,156.5z"/>
</g>
</svg>
