<?xml version="1.0" encoding="utf-8"?>
<!-- Generator: Adobe Illustrator 24.2.0, SVG Export Plug-In . SVG Version: 6.00 Build 0)  -->
<svg version="1.1" id="Layer_1" xmlns="http://www.w3.org/2000/svg" xmlns:xlink="http://www.w3.org/1999/xlink" x="0px" y="0px"
	 viewBox="0 0 350 225" style="enable-background:new 0 0 350 225;" xml:space="preserve">
<style type="text/css">
	.st0{fill:none;}
	.st1{fill:#FFFFFF;}
</style>
<path class="st0" d="M158.6,171c0-0.6,0-0.9,0-1.2c-0.1-9.1-0.1-18.3-0.2-27.4c0-5.3,0-10.6-0.1-15.9c0-2.3-0.1-4.6-0.4-6.9
	c-0.5-3.9-2.1-7.3-4.2-10.5c-9.4-14.8-22.3-19.4-37.7-17.2c-6.8,0.9-12.7,4.4-17.7,9.1c-7.5,7-11.3,15.7-11.3,26.1
	c0,14.1-0.1,28.2-0.1,42.3c0,0.5,0,1.1,0,1.8c-4.6,0-9,0-13.4,0c0,9.1,0,18,0,27c32.8,0,65.6,0,98.4,0c0-9,0-18,0-27
	C167.5,171,163.1,171,158.6,171z"/>
<path class="st1" d="M158.6,171c4.5,0,8.9,0,13.3,0c0,9.1,0,18,0,27c-32.8,0-65.6,0-98.4,0c0-9,0-17.9,0-27c4.4,0,8.8,0,13.4,0
	c0-0.7,0-1.2,0-1.8c0.1-14.1,0.2-28.2,0.1-42.3c0-10.4,3.8-19.1,11.3-26.1c5-4.7,10.9-8.1,17.7-9.1c15.5-2.2,28.3,2.4,37.7,17.2
	c2,3.2,3.7,6.7,4.2,10.5c0.3,2.3,0.3,4.6,0.4,6.9c0.1,5.3,0.1,10.6,0.1,15.9c0.1,9.1,0.1,18.3,0.2,27.4
	C158.6,170.1,158.6,170.4,158.6,171z M127.1,159.1c0-10.9,0-21.7,0-32.7c2.6,0,5,0,7.5,0c0-2.8,0-5.4,0-8c0-1-0.3-1.2-1.3-1.2
	c-2,0.1-4.1,0-6.3,0c0-1.8,0-3.5,0-5.2c-3,0-5.7,0-8.7,0c0,1.8,0,3.4,0,5.2c-2.5,0-4.9,0-7.4,0c0,3.1,0,6.1,0,9.3c2.5,0,4.9,0,7.4,0
	c0,10.9,0,21.7,0,32.5C121.4,159.1,124.1,159.1,127.1,159.1z"/>
<path class="st1" d="M266.2,171c4.5,0,8.9,0,13.3,0c0,9.1,0,18,0,27c-32.8,0-65.6,0-98.4,0c0-9,0-17.9,0-27c4.4,0,8.8,0,13.4,0
	c0-0.7,0-1.2,0-1.8c0.1-14.1,0.2-28.2,0.1-42.3c0-10.4,3.8-19.1,11.3-26.1c5-4.7,10.9-8.1,17.7-9.1c15.5-2.2,28.3,2.4,37.7,17.2
	c2,3.2,3.7,6.7,4.2,10.5c0.3,2.3,0.3,4.6,0.4,6.9c0.1,5.3,0.1,10.6,0.1,15.9c0.1,9.1,0.1,18.3,0.2,27.4
	C266.2,170.1,266.2,170.4,266.2,171z M234.6,159.1c0-10.9,0-21.7,0-32.7c2.6,0,5,0,7.5,0c0-2.8,0-5.4,0-8c0-1-0.3-1.2-1.3-1.2
	c-2,0.1-4.1,0-6.3,0c0-1.8,0-3.5,0-5.2c-3,0-5.7,0-8.7,0c0,1.8,0,3.4,0,5.2c-2.5,0-4.9,0-7.4,0c0,3.1,0,6.1,0,9.3c2.5,0,4.9,0,7.4,0
	c0,10.9,0,21.7,0,32.5C228.9,159.1,231.6,159.1,234.6,159.1z"/>
<path class="st1" d="M188.9,132.7c-8.4,0-16.7,0-25.1,0c-0.2-2.8-0.4-5.5-0.5-8.2c-0.4-11.5-5.6-20.7-14-28.3
	c-2.3-2.1-5.2-3.6-7.8-5.4c-0.7-0.4-0.9-0.8-0.9-1.6c0.1-10.3,0.1-20.7,0.4-31c0.2-7.6,3.5-14.1,8.2-19.8c6.2-7.5,14.4-11.7,24-12.7
	c14.4-1.5,29,7,35.4,20.2c2.6,5.4,3.5,11,3.5,16.8c0.1,8.8,0,17.7,0.1,26.5c0,0.9-0.3,1.3-1,1.7c-4.6,2.6-8.8,5.7-12.2,9.8
	c-5.3,6.3-8.5,13.5-9.3,21.7C189.4,125.8,189.2,129.2,188.9,132.7z M180.8,93.8c0-11.1,0-22.1,0-33.2c2.5,0,4.9,0,7.4,0
	c0-2.9,0-5.7,0-8.7c-2.5,0-4.9,0-7.4,0c0-1.5-0.1-2.8,0-4.1c0-0.9-0.3-1.2-1.2-1.2c-2.1,0-4.1,0.1-6.2,0c-1,0-1.5,0.2-1.4,1.4
	c0.1,1.3,0,2.6,0,4.1c-2.6,0-5,0-7.4,0c0,2.9,0,5.7,0,8.5c2.4,0.1,4.7,0.3,7.3,0.4c0,11,0,21.9,0,32.8
	C175,93.8,177.7,93.8,180.8,93.8z"/>
<path class="st0" d="M234.3,159.2c-2.8,0-5.3,0-7.8,0c-0.3,0-0.7-0.5-0.8-0.8c-0.1-0.4,0-0.8,0-1.3c0-9.6,0-19.3,0-28.9
	c0-0.5,0-1,0-1.6c-2.6,0-4.9,0-7.6,0c0-1,0-1.8,0-2.7c0-1.8,0.1-3.5,0-5.3c-0.1-1.1,0.3-1.3,1.3-1.3c2,0.1,4,0,6.3,0
	c0-1.4,0.1-2.8,0-4.1c-0.1-1,0.3-1.3,1.2-1.2c2.4,0.1,4.9,0,7.4,0c0,1.8,0,3.5,0,5.3c2.5,0,4.9,0,7.4,0c0,3.1,0,6.1,0,9.3
	c-2.4,0-4.8,0-7.3,0C234.3,137.4,234.3,148.2,234.3,159.2z"/>
<path class="st0" d="M221.6,95.2c-6.8,0.9-12.7,4.4-17.7,9.1c-7.5,7-11.3,15.7-11.3,26.1c0,14.1-0.1,28.2-0.1,42.3
	c0,0.5,0,1.1,0,1.8c-4.6,0-9,0-13.4,0c0,9.1,0,18,0,27c32.8,0,65.6,0,98.4,0"/>
</svg>
