<?xml version="1.0" encoding="utf-8"?>
<!-- Generator: Adobe Illustrator 24.2.0, SVG Export Plug-In . SVG Version: 6.00 Build 0)  -->
<svg version="1.1" id="Layer_1" xmlns="http://www.w3.org/2000/svg" xmlns:xlink="http://www.w3.org/1999/xlink" x="0px" y="0px"
	 viewBox="0 0 350 225" style="enable-background:new 0 0 350 225;" xml:space="preserve">
<style type="text/css">
	.st0{fill:#FFFFFF;}
</style>
<g>
	<g>
		<path class="st0" d="M74.3,45.8c0.6-7.6,5.8-9.7,11.2-9.7c52.2,0.1,104.5,0,156.7,0c1.1,0,2.3,0,3.4,0.1c5,0.7,7.4,4.3,6.8,9.4
			c-0.9,7.5-1.4,15.1-2.1,23c1,0,1.9,0,2.7,0c9.4,0,18.7,0.1,28.1,0c6.7-0.1,12.2,2.2,16.7,7.3c8.2,9.1,16.5,18,24.7,27.2
			c3.8,4.2,5.2,9.4,4.6,15.1c-0.7,8-1.4,16-2.1,24.1c-0.5,5.2-0.8,10.5-1.4,15.7c-0.4,3.8-3.7,6.8-7.6,7.2c-1.5,0.2-3,0-4.7,0
			c0.3-6.4-0.9-12.2-4.3-17.5c-6.2-9.8-17.5-13.8-27.9-12.5c-14.2,1.8-27.2,13.8-29.1,29.9c-32.2,0-64.4,0-96.4,0
			c-0.5-3.5-0.4-7-1.4-10.3c-3.2-10.7-10.6-17.2-21.6-19.3c-17.7-3.3-36.1,10-38.5,29.7c-6.9,0-13.9,0.2-20.8-0.1
			c-4.1-0.2-6.7-3.5-6.4-7.8c0.7-8.8,1.5-17.5,2.3-26.2c0.2-2.8,0.4-5.6,0.7-8.6c0.9,0,1.7,0,2.6,0c8.2,0,16.3,0,24.5,0
			c4.1,0,7-3.8,5.5-7.2c-1.1-2.3-3.1-2.8-5.4-2.8c-13.7,0-27.4,0-41,0c-9.3,0-18.6,0-27.8,0c-3.9,0-5.7-1.4-5.7-4.2c0-2.3,2-5,5.8-5
			c32.8,0.1,65.6,0,98.4,0c0.4,0,0.8,0,1.2,0c3.1-0.1,5.3-2.4,5.3-5.3c0-2.9-2.1-4.7-5.4-4.7c-11.1,0-22.2,0-33.4,0
			c-16.3,0-32.6,0-49,0c-2.7,0-4.1-1.1-4.5-3.3c-0.4-2.3,1-4.7,3.3-5.4c1-0.3,2.2-0.4,3.3-0.4c20.5,0,41,0,61.4,0c1,0,2.1,0,3.1-0.3
			c2.2-0.7,4-3.5,3.7-5.6c-0.4-2.4-2.3-4.1-5.1-4.1c-2.6-0.1-5.3,0-7.9,0c-22.1,0-44.2,0-66.2,0c-3.4,0-5-1.1-5.2-3.6
			c-0.3-2.7,1.5-4.9,4.6-5.4c0.9-0.2,1.9-0.2,2.9-0.2c28.1,0,56.2,0,84.2,0c2.6,0,4.5-0.7,5.8-3c1.6-2.9-0.1-6.4-3.4-6.9
			c-1.3-0.2-2.7-0.1-4.1-0.1c-21.9,0-43.8,0-65.7,0c-3.1,0-4.8-1.2-5-3.6c-0.3-2.8,1.3-5.1,4.2-5.4c3.4-0.4,6.9-0.3,10.3-0.3
			C66.7,45.8,70.5,45.8,74.3,45.8z M255.3,104.9c19.2,0,38.2,0,57.4,0c-0.3-0.5-0.4-0.8-0.6-1c-7.4-8.1-14.7-16.3-22.3-24.1
			c-1.6-1.7-4.4-3-6.7-3.1c-8.4-0.4-16.7-0.1-25.3-0.1C257,86,256.1,95.4,255.3,104.9z"/>
		<path class="st0" d="M98.2,167.5c0.1-12.4,10.5-24.9,24.5-26c13.6-1.1,25,8.9,24.2,23.3c-0.7,11.9-9,21.2-20.8,24.1
			c-12.1,2.9-23.4-3.6-26.8-15.5C98.7,171.5,98.5,169.5,98.2,167.5z M110.5,166.3c0,6.4,4.8,11.3,11.3,11.4c6.7,0.1,13-6.2,13.1-13
			c0.1-6.2-4.8-11.3-11.1-11.4C116.9,153.2,110.5,159.4,110.5,166.3z"/>
		<path class="st0" d="M304.8,163.6c-0.1,13.1-11.1,26.1-26.6,25.9c-17.4-0.3-26.3-16.9-19.8-31.8c4.5-10.2,12.7-16,23.9-16.3
			C296.2,141.1,305,151.9,304.8,163.6z M292.8,164.6c0.1-6.4-4.7-11.3-11-11.4c-7.1-0.1-13.4,6-13.5,13.1c-0.1,6.3,4.8,11.3,11,11.4
			C286.5,177.8,292.8,171.7,292.8,164.6z"/>
	</g>
</g>
</svg>
