<?xml version="1.0" encoding="utf-8"?>
<!-- Generator: Adobe Illustrator 24.2.0, SVG Export Plug-In . SVG Version: 6.00 Build 0)  -->
<svg version="1.1" id="Layer_1" xmlns="http://www.w3.org/2000/svg" xmlns:xlink="http://www.w3.org/1999/xlink" x="0px" y="0px"
	 viewBox="0 0 350 225" style="enable-background:new 0 0 350 225;" xml:space="preserve">
<style type="text/css">
	.st0{fill:#FFFFFF;}
</style>
<g>
	<path class="st0" d="M130.8,129.6c-1.3-0.1-2.6-0.2-4.4-0.3c1.5-1.9,2.9-3.5,4-5.2c3.4-4.8,4.7-10.3,6.2-15.9
		c2.3-8.9,1.5-18,1.7-27c0.2-8.2,1.8-16.1,5.4-23.6c2.2-4.7,4.6-9.2,8.7-12.5c5.9-4.7,12.5-7.5,20.4-7.4c9.7,0.2,17.5,3.8,23.4,11.1
		c5.4,6.6,8.2,14.5,9.5,22.9c1.4,8.8,1.1,17.6,1.3,26.5c0.2,7.6,2.4,14.8,5.1,21.7c0.9,2.4,3,4.3,4.5,6.4c0.4,0.6,0.9,1.2,1.7,2.3
		c-1.6,0-2.7-0.1-3.7,0c-0.7,0.1-1.4,0.5-2.2,0.7c0.5,0.6,0.9,1.5,1.5,1.7c5.4,2.3,9.5,6.3,13.1,10.7c8.1,10.1,11.4,21.6,9.5,34.4
		c-0.8,5.2-3.8,9.1-8.9,11.2c-4,1.7-8,2.5-12.4,2.5c-29.8-0.1-59.7,0.1-89.5-0.2c-6.9-0.1-13.1-2.9-16.3-9.9
		c-0.5-1.1-0.7-2.4-0.9-3.6c-0.3-1.8-0.5-3.7-0.8-5.5c-0.1-0.7-0.2-1.4-0.1-2c0.9-5.9,1.5-11.8,4.3-17.4c4-8,9.6-14.3,16.8-19.3
		c0.8-0.5,1.4-1.2,2.1-1.9C130.9,130,130.9,129.8,130.8,129.6z M191.6,81c0.2-1.1,0.2-1.7,0.5-2.1c2-3.1,1.3-6.2-0.1-9.2
		c-1.1-2.4-2.5-2.7-4.6-1.2c-6.7,5-13.9,9.4-21.7,12.4c-5.9,2.3-12.1,3.7-18.2,5.4c-2.8,0.7-3.5,1.2-3.3,4c0.1,1.7,0.6,3.4,1,5
		c2,9.2,5.7,17.5,13,23.8c6.3,5.4,13.4,7,21.3,4.3c6.2-2.1,10.6-6.3,14-11.8c5.1-8.4,7.9-17.4,7.9-27.3c0-2.7-0.7-3.3-3.3-3.3
		C196,81,194,81,191.6,81z M158.1,131.6c-2.8-0.5-5-0.9-7.3-1.2c-0.8-0.1-1.6,0.3-2.4,0.5c0.4,0.8,0.5,1.7,1.1,2.3
		c2.7,2.7,6,4.3,9.6,5.6c1.8,0.7,3.7,1.9,4.7,3.4c2.4,3.4,4.3,7.2,6.4,10.8c1.5,2.6,2.9,2.7,4.6,0.1c2.2-3.4,4.4-6.8,6.2-10.3
		c1-2,2.4-3.1,4.4-3.8c1.8-0.6,3.7-1,5.2-2.1c2.5-1.8,4.7-4.1,6.9-6.3c0.5-0.5,0.6-1.9,0.3-2.4c-0.3-0.5-1.5-0.6-2.3-0.6
		c-2.1-0.1-4.3,0-6.6,0c0.1-0.4,0.3-0.7,0.3-1.1c0-0.8,0-1.5,0-2.3c-0.8,0.1-1.8,0-2.5,0.4c-1.2,0.6-2.3,1.4-3.4,2.1
		c-6.8,4.2-17.6,4-24.3-2.1c-1-0.9-2.4-1.2-3.7-1.8c-0.2,0.2-0.3,0.3-0.5,0.5C155.8,125.9,156.8,128.5,158.1,131.6z"/>
	<path class="st0" d="M72,172.8c-8.2,0-16.3,0-24.5,0c-5.4,0-10.7-0.6-15.4-3.3c-4.9-2.8-8.1-7-8.1-13c0-0.4,0-0.9,0-1.3
		c-0.5-7.4,2-13.9,5.8-20.2c5.1-8.4,12.6-13.1,21.8-15.6c1.4-0.4,2.5-0.2,3.2,1.2c2.5,5.2,7.2,7.5,12.5,9c7.7,2.2,15.1,0.9,22.4-2.1
		c2.9-1.2,5.2-3.2,6.4-6.3c0.7-1.7,1.7-2.2,3.7-1.8c7.2,1.4,13,5,17.9,10.3c1.4,1.5,1.5,2.6-0.1,4.1c-9.7,9.3-14.5,20.8-15,34.2
		c0,0.7-0.1,1.3-0.1,2c0,2-1.1,2.7-3,2.7C90.3,172.8,81.2,172.8,72,172.8C72,172.8,72,172.8,72,172.8z"/>
	<path class="st0" d="M274.3,146.2c0.8-0.8,1.7-1.3,2.2-2c4.3-7.1,8.6-14.3,12.7-21.5c2-3.6,2.8-4.1,7-3c12.7,3.4,19.9,12.1,24.2,24
		c1.9,5.1,1.5,10.2,1,15.3c-0.6,6-6.7,11.6-13.1,12.6c-4.4,0.7-8.9,1.2-13.4,1.3c-16.5,0.1-33,0-49.5,0.1c-2.2,0-2.8-0.7-2.7-2.8
		c0.5-11.1-3.5-20.9-9.6-29.8c-1.8-2.6-4.2-4.7-6.5-6.8c-1.4-1.3-1.5-2.3-0.2-3.7c4.6-5.1,10.1-8.6,16.7-10.4
		c3.9-1.1,4.7-0.3,6.5,3.2c3.5,6.7,7.5,13.1,11.3,19.6c0.6,1,1.3,2.1,2.2,2.8c1.1,1,2.2,0.5,2.2-1c0.2-3,0.5-6,0.3-9
		c-0.1-1.6-1.2-3.2-1.9-4.8c-0.3-0.8-0.6-1.6-1-2.4c0.8-0.2,1.6-0.5,2.5-0.5c3.3-0.1,6.7-0.2,10-0.3c0.5,0,1.2,0.1,1.3,0.3
		c0.2,0.3-0.1,0.9-0.2,1.4c0,0.2-0.2,0.4-0.4,0.5c-5.3,4.7-1.7,10.7-2.3,16C273.6,145.4,273.9,145.6,274.3,146.2z"/>
	<path class="st0" d="M50.2,83.7c-0.9-11.8,4.9-19.8,14-25.8c8-5.3,20.3-3.7,27.4,2.7c8.4,7.5,11.5,17,9.8,27.9
		c-1.2,7.5-2.6,14.9-7.2,21.2c-3.7,5.1-7.9,9.7-14.3,11.2c-5.7,1.3-10.9,0.3-15.4-3.8c-4.4-4-8.2-8.4-10.4-13.9
		C51.4,97,49.6,90.4,50.2,83.7z M95.1,88.1c0-2.1,0-4.1,0-6.1c-0.1-2.2,0.1-4.5-0.4-6.7c-0.6-2.9-2.4-3.7-5.2-2.7c-1,0.3-2,0.7-3,1
		c-5.5,1.7-11,3-16.7,1.3c-2.6-0.8-5.2-1.4-7.7-2.3c-3.1-1-4.7-0.4-5.2,2.8c-0.6,3.4-0.7,6.8-0.9,10.2c-0.1,0.9,0,1.7,0,2.7
		c-2.3-0.3-3,0.7-2.7,2.6c0.9,7.6,3.6,14.5,8.7,20.3c2.4,2.7,5.1,5.3,8.8,5.9c10.4,1.9,14.9-0.7,21.3-9.2c3.4-4.5,5.1-9.9,6.4-15.4
		C99.2,88.8,99.1,88.5,95.1,88.1z"/>
	<path class="st0" d="M268.9,55.1c11.8-0.9,22.6,8.9,25.5,20.1c2.2,8.4,0.5,16.6-2,24.7c-1.9,6.1-5,11.4-9.7,15.8
		c-8.3,7.8-18,7.9-26.4,0.1c-5.8-5.4-9.2-11.9-11-19.5c-1.1-4.6-1.6-9-1.8-13.7c-0.2-8.5,3.1-15.3,9.2-21
		C257.4,57.5,262.5,54.5,268.9,55.1z M292,88.3c-2.2,0.3-2.7-0.7-2.5-2.6c0.2-1.8,0.2-3.6,0-5.4c-0.2-2-0.6-4-1.3-5.8
		c-1.1-2.7-2.5-2.9-5.2-1.9c-3.3,1.1-6.7,2.1-10.1,2.7c-5.8,0.9-11.5-0.2-16.8-2.6c-3.1-1.4-4.9-0.8-5.5,2.4
		c-0.7,3.7-0.6,7.5-1,11.3c-0.1,0.6-0.6,1.7-0.9,1.7c-1.9,0-2.1,1.1-1.9,2.6c1.4,8.7,4.3,16.6,11,23c5.7,5.4,16.7,4.8,21.5,1.3
		c5.5-3.9,8.6-9.4,10.7-15.5C291.1,95.9,293,92.5,292,88.3z"/>
</g>
</svg>
