<?xml version="1.0" encoding="utf-8"?>
<!-- Generator: Adobe Illustrator 24.2.0, SVG Export Plug-In . SVG Version: 6.00 Build 0)  -->
<svg version="1.1" id="Layer_1" xmlns="http://www.w3.org/2000/svg" xmlns:xlink="http://www.w3.org/1999/xlink" x="0px" y="0px"
	 viewBox="0 0 377 242" style="enable-background:new 0 0 377 242;" xml:space="preserve">
<style type="text/css">
	.st0{fill:#FFFFFF;}
</style>
<g>
	<g>
		<path class="st0" d="M98.5,138.5c3.8,0,7.7,0,11.8,0c0,20,0,39.6,0,59.7c52.1,0,103.8,0,155.9,0c0-51.7,0-103.4,0-155.4
			c-51.7,0-103.4,0-155.5,0c0,18.6,0,37.4,0,56.6c-4.3,0-8.3,0-12.2,0c0-20.8,0-41.6,0-62.4c2.1-2.1,4.3-4.3,6.4-6.4
			c55.7,0,111.5,0,167.2,0c2.1,2.4,4.3,4.8,6.4,7.2c0,55.2,0,110.4,0,165.6c-1.3,3.5-3.7,5.9-7.2,7.2c-55.5,0-110.9,0-166.4,0
			c-2.1-2.4-4.3-4.8-6.4-7.2C98.5,181.7,98.5,160.1,98.5,138.5z"/>
		<path class="st0" d="M76,111c44.8,0,89.6,0,134.1,0c-14.7-14.6-29.3-29.2-43.8-43.6c4.6-4.3,8-7.6,11.1-10.4
			c20.1,20.1,40.9,40.9,61.3,61.3c-20.3,20.2-41.1,41.1-62,61.9c-2.7-2.7-6-6-9.3-9.3c14.4-14.4,29-29,44.6-44.5
			c-2.4-0.3-3.3-0.5-4.2-0.5c-43.3,0-86.6,0-129.9,0c-0.7,0-1.3,0.1-2,0.1C76,121,76,116,76,111z"/>
	</g>
</g>
</svg>
