<?xml version="1.0" encoding="utf-8"?>
<!-- Generator: Adobe Illustrator 24.2.0, SVG Export Plug-In . SVG Version: 6.00 Build 0)  -->
<svg version="1.1" id="Layer_1" xmlns="http://www.w3.org/2000/svg" xmlns:xlink="http://www.w3.org/1999/xlink" x="0px" y="0px"
	 viewBox="0 0 350 225" style="enable-background:new 0 0 350 225;" xml:space="preserve">
<style type="text/css">
	.st0{fill:#FFFFFF;}
</style>
<g>
	<path class="st0" d="M54,181.5c0-27.4,0-54.5,0-81.9c-1.3,0-2.5,0-3.7,0c-1.5,0-2.2-0.7-2.2-2.2c0-5.7,0-11.3,0-17
		c0-1.7,0.7-2.3,2.4-2.3c2.9,0,5.8,0,8.7-0.1c0.8,0,1.7-0.4,2.2-0.9C72,66,82.4,54.9,92.7,43.7c1.6-1.7,3.2-2.9,5.7-2.5
		c0.8,0.1,1.7,0,2.7,0c0-2.5,0-4.9,0-7.3c-0.1-0.1-0.2-0.2-0.3-0.2c-3.5-0.3-3.5-0.3-3.5-4c0-2.4,0-4.9,0-7.3c0-1.6,0.6-2.3,2.2-2.3
		c10.9,0,21.8,0,32.7,0c1.8,0,2.3,0.6,2.3,2.3c0,2.8,0,5.5,0,8.3c0,2.5-0.3,2.8-2.8,2.9c-0.3,0-0.6,0.1-1,0.1c0,2.4,0,4.8,0,7.5
		c0.8,0,1.5,0,2.2,0c41.4,0,82.8,0,124.2,0c2.1,0,3.5,0.6,4.9,2.1c10.4,11.2,20.9,22.4,31.3,33.7c0.8,0.8,1.6,1.1,2.7,1.1
		c2.8-0.1,5.5,0,8.3,0c2.1,0,2.7,0.6,2.7,2.7c0,5.4,0,10.8,0,16.2c0,2.1-0.5,2.6-2.6,2.6c-1.1,0-2.2,0-3.2,0c-0.1,0-0.2,0-0.4,0.1
		c0,27.2,0,54.3,0,81.8c1.3,0,2.5,0,3.8,0c1.9,0,2.5,0.6,2.5,2.4c0,4.8,0,9.6,0,14.4c0,1.8-0.6,2.3-2.3,2.4c-0.5,0-1,0-1.5,0
		c-83.7,0-167.4,0-251.1,0c-0.6,0-1.3,0-1.9,0c-1.1-0.1-1.7-0.7-1.7-1.8c0-5.2,0-10.4,0-15.5c0-1.3,0.8-1.8,2-1.8
		C51.7,181.5,52.8,181.5,54,181.5z M67.8,77.8c73.2,0,146.1,0,219.2,0c-0.3-0.4-0.5-0.6-0.6-0.8c-9.2-10-18.4-20-27.6-30
		c-0.8-0.9-1.6-1.2-2.8-1.2c-52.3,0-104.6,0-157,0c-1.2,0-2,0.3-2.8,1.2C89.1,54.7,82,62.4,74.9,70.1C72.6,72.6,70.3,75.1,67.8,77.8
		z M131.4,113.4c0,0.8,0,1.5,0,2.2c0,17.8,0,35.5,0,53.3c0,2.8-0.3,3.1-3,3.1c-15.6,0-31.1,0-46.7,0c-2.7,0-3-0.3-3-3
		c0-19,0-37.9,0-56.9c0-2.7,0.3-3,3-3c14.6,0,29.3,0,43.9,0c0.6,0,1.2,0,1.9,0c0-3.3,0-6.3,0-9.4c-19.7,0-39.2,0-58.9,0
		c0,27.3,0,54.4,0,81.7c0.6,0,1,0.1,1.5,0.1c2.7,0,3.1,0.4,3.1,3.1c0,1.5,0,3,0,4.5c19.6,0,38.9,0,58.3,0c0-0.6,0-1.1,0-1.7
		c0-4,0-8.1,0-12.1c0-1.9,0.5-2.5,2.5-2.5c1,0,2,0,3,0c0-19.9,0-39.6,0-59.4C135.2,113.4,133.4,113.4,131.4,113.4z M227.9,109.1
		c0.8,0,1.5,0,2.1,0c14.6,0,29.2,0,43.7,0c2.3,0,2.7,0.4,2.7,2.7c0,19.1,0,38.2,0,57.3c0,2.4-0.3,2.7-2.8,2.7c-15.7,0-31.3,0-47,0
		c-2.6,0-2.9-0.3-2.9-2.9c0-18,0-36.1,0-54.1c0-0.7,0-1.4,0-2.2c-1.5,0-2.7,0.1-3.9,0c-1.5-0.1-2,0.4-2,2c0.1,18.7,0,37.4,0,56
		c0,0.6,0,1.2,0,1.6c0.3,0.1,0.4,0.2,0.5,0.2c0.9,0,1.8,0,2.8,0c1.9,0,2.5,0.6,2.5,2.5c0,1.7,0,3.3,0,5c0,2.9,0,5.9,0,8.9
		c19.7,0,39.1,0,58.7,0c0-1.3,0-2.5,0-3.6c0-3.8,0-3.8,3.8-4.1c0.1,0,0.2-0.1,0.3-0.2c0-27.1,0-54.2,0-81.3c-19.6,0-39,0-58.5,0
		C227.9,102.9,227.9,105.9,227.9,109.1z M281.2,91.3c-69.2,0-138.3,0-207.3,0c0,1.5,0,2.8,0,4.1c69.2,0,138.2,0,207.3,0
		C281.2,94,281.2,92.7,281.2,91.3z M281.2,82.3c-69.1,0-138.1,0-207.2,0c0,1.3,0,2.4,0,3.7c0.9,0,1.7,0,2.5,0
		c67.2,0,134.4,0,201.7,0C281.6,86,281.6,86,281.2,82.3z M177.6,195.3c10.3,0,20.5,0,30.8,0c2,0,2.6-0.6,2.6-2.6c0-2.2,0-4.3,0-6.5
		c0-2.4-0.5-2.9-3-2.9c-12.6,0-25.2,0-37.9,0c-7.7,0-15.4,0-23.1,0c-2,0-2.5,0.6-2.5,2.5c0,2.2,0,4.4,0,6.6c0,2.4,0.4,2.8,2.8,2.8
		C157.4,195.3,167.5,195.3,177.6,195.3z M194.8,149.4c0,0.7,0,1.3,0,1.9c0,7.2,0,14.5,0,21.7c0,2.1-0.5,2.6-2.6,2.6
		c-9.7,0-19.4,0-29.2,0c-2.1,0-2.6-0.5-2.6-2.6c0-7.4,0-14.8,0-22.2c0-2.3,0.4-2.7,2.7-2.8c9,0,17.9,0,26.9,0c0.6,0,1.2-0.1,1.9-0.1
		c-0.2-1.3-0.3-2.3-0.5-3.5c-0.7,0-1.3,0-2,0c-8.9,0-17.7,0-26.6,0c-2.1,0-2.7-0.5-2.7-2.7c0-7.3,0-14.7,0-22c0-2.3,0.5-2.8,2.9-2.8
		c9.6,0,19.1,0,28.7,0c2.3,0,2.8,0.5,2.8,2.9c0,6.8,0,13.6,0,20.4c0,0.6,0,1.3,0,1.9c1,0.2,1.9,0.4,2.8,0.6c0-9.9,0-19.7,0-29.6
		c-0.7,0-1.2,0-1.7,0c-12.1,0-24.3,0-36.4,0c-1.6,0-2,0.5-2,2c0,20.4,0,40.7,0,61.1c0,0.6,0,1.3,0,1.9c13.5,0,26.8,0,40.1,0
		c0-9.9,0-19.6,0-29.5C196.5,148.9,195.7,149.1,194.8,149.4z M177.8,99.2c-10.2,0-20.4,0-30.6,0c-2.1,0-2.6,0.6-2.6,2.6
		c0,1.2,0,2.4,0,3.6c0,4,0,4,3.9,4c19.3,0,38.6,0,57.9,0c0.9,0,1.7,0,2.6,0c1.4,0,2.1-0.7,2.1-2.1c0-1.7,0-3.5,0-5.2
		c0-2.5-0.4-2.9-2.9-2.9C198.1,99.2,187.9,99.2,177.8,99.2z M58.2,99.7c0,27.3,0,54.4,0,81.5c2.1,0,4.2,0,6.2,0
		c0-27.2,0-54.3,0-81.5C62.4,99.7,60.4,99.7,58.2,99.7z M177.6,171.5c3.9,0,7.8,0,11.7,0c1.2,0,1.6-0.4,1.6-1.6c0-5.5,0-11,0-16.5
		c0-1.1-0.3-1.5-1.5-1.5c-7.8,0-15.7,0-23.5,0c-1.2,0-1.5,0.4-1.5,1.5c0,5.5,0,11,0,16.5c0,1.2,0.3,1.6,1.6,1.6
		C169.9,171.5,173.7,171.5,177.6,171.5z M190.5,121.2c-8.8,0-17.4,0-26,0c0,6.4,0,12.7,0,19.1c8.7,0,17.3,0,26,0
		C190.5,133.8,190.5,127.5,190.5,121.2z M106.9,167.7c6.9,0,13.6,0,20.4,0c0-7.7,0-15.3,0-22.9c-6.8,0-13.5,0-20.4,0
		C106.9,152.5,106.9,160.1,106.9,167.7z M290.7,99.7c0,27.3,0,54.4,0,81.6c2,0,3.8,0,5.7,0c0-27.2,0-54.4,0-81.6
		C294.5,99.7,292.6,99.7,290.7,99.7z M252.1,144.8c0,7.7,0,15.3,0,22.9c6.8,0,13.4,0,20,0c0-7.7,0-15.3,0-22.9
		C265.4,144.8,258.9,144.8,252.1,144.8z M247.7,167.7c0-7.7,0-15.3,0-22.9c-6.6,0-13.1,0-19.6,0c0,7.7,0,15.3,0,22.9
		C234.7,167.7,241.1,167.7,247.7,167.7z M102.5,144.8c-6.5,0-13,0-19.4,0c0,7.7,0,15.3,0,22.9c6.5,0,12.9,0,19.4,0
		C102.5,160,102.5,152.4,102.5,144.8z M141.4,115.6c0,19.1,0,38,0,56.9c2.1,0,4.1,0,6.2,0c0-19,0-37.9,0-56.9
		C145.5,115.6,143.5,115.6,141.4,115.6z M213.6,172.6c0-19.1,0-38,0-56.9c-2.1,0-4.1,0-6.1,0c0,19,0,37.9,0,56.9
		C209.6,172.6,211.5,172.6,213.6,172.6z M127.1,128.6c-6.8,0-13.4,0-20,0c0,4,0,7.9,0,11.8c6.7,0,13.3,0,20,0
		C127.1,136.5,127.1,132.6,127.1,128.6z M252.1,140.4c6.7,0,13.4,0,20.1,0c0-3.5-0.1-6.9,0-10.3c0-1.3-0.3-1.7-1.6-1.7
		c-5.7,0.1-11.4,0-17.1,0c-0.5,0-0.9,0.1-1.4,0.1C252.1,132.6,252.1,136.5,252.1,140.4z M83.1,140.4c6.6,0,13,0,19.5,0
		c0-4,0-7.9,0-11.8c-6.5,0-13,0-19.5,0C83.1,132.6,83.1,136.5,83.1,140.4z M247.6,140.5c0-4.1,0-8,0-11.9c-6.6,0-13,0-19.4,0
		c0,4,0,7.9,0,11.9C234.7,140.5,241.1,140.5,247.6,140.5z M127.3,124.3c0-3.8,0-7.5,0-11.3c-6.6,0-13.1,0-19.5,0
		c-0.3,0-0.9,0.7-0.9,1.1c-0.1,1.6,0,3.2,0,4.9c0,1.8,0,3.5,0,5.3C113.8,124.3,120.5,124.3,127.3,124.3z M272.1,124.3
		c0-3.8,0-7.4,0-11.3c-6.5,0-13,0-19.4,0c-0.3,0-0.8,0.4-0.8,0.7c-0.1,3.5,0,7,0,10.6C258.8,124.3,265.4,124.3,272.1,124.3z
		 M228,113.3c0,3.7,0,7.3,0,10.9c6.6,0,13.2,0,19.8,0c0-3.7,0-7.3,0-10.9C241.2,113.3,234.8,113.3,228,113.3z M102.7,113.4
		c-6.6,0-13.1,0-19.6,0c0,3.7,0,7.3,0,10.8c6.6,0,13.1,0,19.6,0C102.7,120.5,102.7,117,102.7,113.4z M282.2,193.4
		c-19.6,0-39,0-58.5,0c0,1,0,2,0,3c19.6,0,39,0,58.5,0C282.2,195.4,282.2,194.4,282.2,193.4z M73.4,196.4c19.5,0,38.8,0,58.2,0
		c0-1.1,0-2,0-3c-19.4,0-38.8,0-58.2,0C73.4,194.4,73.4,195.3,73.4,196.4z M105.3,41.1c7.2,0,14.2,0,21.4,0c0-2-0.1-4,0-5.9
		c0.1-1.3-0.5-1.6-1.7-1.6c-6.1,0.1-12.2,0-18.3,0c-0.5,0-0.9,0.1-1.5,0.1C105.3,36.2,105.3,38.6,105.3,41.1z M101.3,24.3
		c0,1.2,0.1,2.4,0,3.5c-0.1,1.3,0.3,1.8,1.7,1.8c8-0.1,16,0,23.9,0c3.8,0,3.7,0,3.7-3.7c0-1.3-0.3-1.7-1.6-1.6
		c-8.7,0.1-17.5,0-26.2,0C102.4,24.2,102,24.2,101.3,24.3z M203.2,172.5c0-0.3,0.1-0.5,0.1-0.7c0-7.7,0-15.4,0-23.2
		c0-11.9,0-23.9,0-35.8c0-0.5-0.6-1-0.9-1.5c-0.2,0.5-0.7,1-0.7,1.5c-0.1,3.2,0,6.4,0,9.6c0,16.2,0,32.4,0,48.6
		C201.6,171.9,201.4,173,203.2,172.5z M153.3,172.5c0-0.5,0.1-1,0.1-1.4c0-19.4,0-38.9,0-58.3c0-0.3,0.1-0.6,0-0.8
		c-0.1-0.3-0.4-0.5-0.6-0.8c-0.2,0.2-0.6,0.4-0.7,0.7c-0.2,0.7-0.2,1.5-0.2,2.2c0,9.3,0,18.7,0,28c0,9.7,0,19.3,0,29
		C151.8,172.1,151.7,173,153.3,172.5z"/>
</g>
</svg>
