<?xml version="1.0" encoding="utf-8"?>
<!-- Generator: Adobe Illustrator 24.2.0, SVG Export Plug-In . SVG Version: 6.00 Build 0)  -->
<svg version="1.1" id="Layer_1" xmlns="http://www.w3.org/2000/svg" xmlns:xlink="http://www.w3.org/1999/xlink" x="0px" y="0px"
	 viewBox="0 0 350 225" style="enable-background:new 0 0 350 225;" xml:space="preserve">
<style type="text/css">
	.st0{fill:#FFFFFF;}
</style>
<g>
	<g>
		<path class="st0" d="M119.2,81c0-2.6,0-5.2,0-7.7c0-25.8,19.6-48.5,45.2-51.4c20.5-2.3,36.5,6.3,48.2,22.9
			c6,8.5,8.8,18.1,8.7,28.5c0,2.5,0,5,0,7.7c1.2,0.2,2.2,0.2,3.2,0.4c8.3,1.7,13.8,8.6,13.8,17.4c0,17.6,0,35.3,0,52.9
			c0,10.4,0,20.8,0,31.1c0,8.7-5.5,15.5-13.8,17.2c-1.4,0.3-2.8,0.3-4.2,0.3c-33.5,0-66.9,0-100.4,0c-10.8,0-18-7.2-18-18.1
			c0-27.2,0.2-54.4-0.1-81.6C101.9,89.4,108.9,81.6,119.2,81z M204.2,81c0-4.1,0.3-8.1-0.1-12c-1.1-12.7-7-22.3-18.9-27.6
			c-5.2-2.3-10.7-3.1-16.4-2.9c-24,1.1-35.2,19.1-32.3,42.5C159.1,81,181.6,81,204.2,81z M153.2,140.7c-0.1,9.3,7.6,17,16.9,17.1
			c9.2,0.1,17-7.6,17.2-16.9c0.1-9.3-7.7-17.2-17-17.2C161,123.7,153.3,131.3,153.2,140.7z"/>
	</g>
</g>
</svg>
