<?xml version="1.0" encoding="utf-8"?>
<!-- Generator: Adobe Illustrator 24.2.0, SVG Export Plug-In . SVG Version: 6.00 Build 0)  -->
<svg version="1.1" id="Layer_1" xmlns="http://www.w3.org/2000/svg" xmlns:xlink="http://www.w3.org/1999/xlink" x="0px" y="0px"
	 viewBox="0 0 377 242" style="enable-background:new 0 0 377 242;" xml:space="preserve">
<style type="text/css">
	.st0{fill:none;}
	.st1{fill:#FFFFFF;}
</style>
<g>
	<g>
		<path class="st0" d="M129.5,136.5C129.5,136.5,129.5,136.5,129.5,136.5c0,23.5,0,46.9,0,70.4c0,2.9,0.9,3.8,3.7,3.8
			c36.4,0,72.8,0,109.2,0c2.8,0,3.7-0.9,3.7-3.6c0-47.1,0-94.3,0.1-141.4c0-2.1-1.1-3.2-3.2-3.3c-0.5,0-1.1,0-1.6,0
			c-28.3,0-56.6,0-85,0c-7.8,0-15.7,0-23.5,0c-2.3,0-3.3,1-3.3,3.3c0,0.5,0,1,0,1.4C129.5,90.3,129.5,113.4,129.5,136.5z
			 M103.7,173.3c0-45.7,0-91.2,0-136.7c35,0,69.9,0,105,0c0,0.7,0,1.3,0,1.8c0,6,0,12,0,18c0,1.9,1.2,3.2,2.9,3.2
			c1.6,0,2.8-1.2,2.8-2.9c0-7.7,0-15.5,0-23.2c0-1.6-1.1-2.6-2.7-2.8c-1-0.1-1.9,0-2.9,0c-35.6,0-71.2,0-106.7,0
			c-3.5,0-4.3,0.7-4.3,4.4c0,20.9,0,41.8,0,62.7c0,25.8,0,51.5,0,77.3c0,3.1,0.8,3.9,3.9,3.9c6.9,0,13.8,0,20.7,0
			c2.3,0,3.6-1.1,3.5-2.9c0-1.7-1.4-2.8-3.5-2.8c-4.4,0-8.7,0-13.1,0C107.5,173.3,105.6,173.3,103.7,173.3z M271.9,52.4
			c0,45.7,0,91.2,0,136.8c-3.8,0-7.5,0-11.2,0c-2.9,0-5.7,0-8.6,0c-1.4,0-2.6,0.6-2.9,1.9c-0.2,0.9,0.1,2.3,0.7,2.9
			c0.6,0.6,1.9,0.9,2.9,0.9c7,0.1,14,0,21,0c3.2,0,4-0.8,4-4c0-33.9,0-67.8,0-101.7c0-12.6,0-25.2,0-37.7c0-4.2-0.5-4.8-4.7-4.8
			c-17.2,0-34.5,0-51.7,0c-0.5,0-1.1,0-1.6,0.1c-1.5,0.2-2.4,1.1-2.5,2.6c-0.1,1.5,0.6,2.5,2.1,2.9c0.7,0.2,1.4,0.2,2.1,0.2
			c16,0,32,0,48,0C270.3,52.4,271,52.4,271.9,52.4z"/>
		<path class="st1" d="M129.5,136.5c0-23.1,0-46.2,0-69.3c0-0.5,0-1,0-1.4c0.1-2.3,1-3.3,3.3-3.3c7.8,0,15.7,0,23.5,0
			c28.3,0,56.6,0,85,0c0.5,0,1.1,0,1.6,0c2.1,0.1,3.2,1.2,3.2,3.3c0,47.1,0,94.3-0.1,141.4c0,2.7-0.9,3.6-3.7,3.6
			c-36.4,0-72.8,0-109.2,0c-2.8,0-3.7-0.9-3.7-3.8C129.5,183.5,129.5,160,129.5,136.5C129.5,136.5,129.5,136.5,129.5,136.5z
			 M240.2,204.9c0-45.6,0-91.1,0-136.6c-35,0-69.9,0-104.8,0c0,45.6,0,91,0,136.6C170.4,204.9,205.2,204.9,240.2,204.9z"/>
		<path class="st1" d="M103.7,173.3c2,0,3.8,0,5.6,0c4.4,0,8.7,0,13.1,0c2.1,0,3.4,1.1,3.5,2.8c0.1,1.8-1.3,2.9-3.5,2.9
			c-6.9,0-13.8,0-20.7,0c-3.1,0-3.9-0.8-3.9-3.9c0-25.8,0-51.5,0-77.3c0-20.9,0-41.8,0-62.7c0-3.6,0.7-4.4,4.3-4.4
			c35.6,0,71.2,0,106.7,0c1,0,1.9,0,2.9,0c1.6,0.1,2.7,1.1,2.7,2.8c0,7.7,0,15.5,0,23.2c0,1.7-1.3,2.9-2.8,2.9
			c-1.7,0-2.9-1.2-2.9-3.2c0-6,0-12,0-18c0-0.6,0-1.2,0-1.8c-35.1,0-70,0-105,0C103.7,82.2,103.7,127.6,103.7,173.3z"/>
		<path class="st1" d="M271.9,52.4c-0.9,0-1.6,0-2.4,0c-16,0-32,0-48,0c-0.7,0-1.5,0-2.1-0.2c-1.5-0.4-2.2-1.4-2.1-2.9
			c0.1-1.5,1-2.4,2.5-2.6c0.5-0.1,1.1-0.1,1.6-0.1c17.2,0,34.5,0,51.7,0c4.1,0,4.7,0.6,4.7,4.8c0,12.6,0,25.2,0,37.7
			c0,33.9,0,67.8,0,101.7c0,3.2-0.8,4-4,4c-7,0-14,0-21,0c-1,0-2.3-0.3-2.9-0.9c-0.6-0.6-0.8-2-0.7-2.9c0.3-1.4,1.5-1.9,2.9-1.9
			c2.9,0,5.7,0,8.6,0c3.7,0,7.4,0,11.2,0C271.9,143.6,271.9,98.1,271.9,52.4z"/>
		<path class="st1" d="M172.5,157.3c5.3,0,10.5,0,15.8,0c1.4,0,2-0.3,2-1.9c-0.1-10.7-0.1-21.3-0.1-32c0-2.3,1.2-3.4,3.6-3.4
			c18,0,35.2,14.3,38.6,32.2c5,25.8-15.8,49.6-42.1,47.9c-17.6-1.1-33.6-15.4-36.6-32.8c-0.4-2.2-0.6-4.4-0.7-6.6
			c-0.1-2.3,1-3.4,3.3-3.5C161.7,157.3,167.1,157.3,172.5,157.3z M159,163.1c0.7,15.6,14.2,32.4,36.1,31.4
			c19.4-0.8,33.8-17.6,32.2-37.5c-1.4-16.6-17.6-32.6-31.3-30.7c0,0.7,0,1.4,0,2.1c0,10.1,0,20.2,0,30.4c0,3.5-0.8,4.3-4.3,4.3
			c-10.1,0-20.2,0-30.4,0C160.6,163.1,159.9,163.1,159,163.1z"/>
		<path class="st1" d="M162.5,150.4c-5.6,0-11.1,0-16.7,0c-3.1,0-4-1-3.9-4c0.7-19.9,17.2-36.6,37.1-37.4c3.5-0.1,4.4,0.9,4.4,4.4
			c-0.1,10.9,0,21.8,0,32.7c0,3.6-0.7,4.3-4.3,4.3C173.5,150.4,168,150.4,162.5,150.4z M177.4,115c-17.6,1-29.3,16.5-29.4,29.5
			c9.8,0,19.6,0,29.4,0C177.4,134.6,177.4,124.9,177.4,115z"/>
		<path class="st1" d="M188,95.2c13.6,0,27.2,0,40.8,0c0.7,0,1.5,0,2.1,0.2c1.3,0.5,2,1.6,1.8,3c-0.2,1.6-1.3,2.5-3,2.5
			c-4.1,0-8.1,0-12.2,0c-23.5,0-47.1,0-70.6,0c-0.2,0-0.5,0-0.7,0c-1.9-0.1-3.2-1.2-3.2-2.9c0-1.7,1.2-2.8,3.2-2.8
			c6.6,0,13.3,0,19.9,0C173.4,95.2,180.7,95.2,188,95.2C188,95.2,188,95.2,188,95.2z"/>
		<path class="st1" d="M187.8,80.4c13.6,0,27.2,0,40.8,0c0.5,0,1.1,0,1.6,0c1.5,0.2,2.4,1.2,2.5,2.6c0.1,1.4-0.6,2.4-2,2.9
			c-0.7,0.2-1.4,0.2-2.1,0.2c-27.2,0-54.5,0-81.7,0c-0.4,0-0.7,0-1.1,0c-1.8-0.2-3-1.5-2.9-3.1c0.1-1.5,1.3-2.6,3-2.7
			c4.6,0,9.1,0,13.7,0C169,80.4,178.4,80.4,187.8,80.4C187.8,80.4,187.8,80.4,187.8,80.4z"/>
		<path class="st0" d="M159,163.1c0.9,0,1.6,0,2.3,0c10.1,0,20.2,0,30.4,0c3.5,0,4.3-0.8,4.3-4.3c0-10.1,0-20.2,0-30.4
			c0-0.7,0-1.4,0-2.1c13.8-1.9,29.9,14.1,31.3,30.7c1.7,19.9-12.8,36.7-32.2,37.5C173.2,195.4,159.7,178.7,159,163.1z"/>
		<path class="st0" d="M177.4,115c0,9.9,0,19.6,0,29.5c-9.8,0-19.6,0-29.4,0C148.1,131.5,159.8,116.1,177.4,115z"/>
	</g>
</g>
</svg>
