<?xml version="1.0" encoding="utf-8"?>
<!-- Generator: Adobe Illustrator 24.2.0, SVG Export Plug-In . SVG Version: 6.00 Build 0)  -->
<svg version="1.1" id="Layer_1" xmlns="http://www.w3.org/2000/svg" xmlns:xlink="http://www.w3.org/1999/xlink" x="0px" y="0px"
	 viewBox="0 0 350 225" style="enable-background:new 0 0 350 225;" xml:space="preserve">
<style type="text/css">
	.st0{fill:#FFFFFF;}
</style>
<g>
	<path class="st0" d="M211.1,167.2c0,3.4,0.1,6.9,0,10.3c-0.4,9.4-6.9,16.2-16.4,16.3c-29.1,0.2-58.2,0.1-87.3,0
		c-8.7,0-16.5-6.3-16.4-16.9c0.3-37.8,0.1-75.6,0.1-113.4c0-11.4,6.1-17.3,17.6-17.3c2.5,0,5,0,7.3,0c0.4-0.7,0.6-0.9,0.6-1.2
		c0.9-11.9,3.2-14.1,15.3-14c3.4,0,5.8-0.3,8-3.8c5.5-8.6,17.4-8,22.7,1c1.5,2.5,3,3.4,5.7,3.1c1-0.1,2.1,0,3.1,0
		c10.5,0,13.1,2.5,13.6,13.1c0,0.4,0.2,0.9,0.4,1.9c3,0,6.1,0,9.2,0c9.4,0.1,16.1,6.5,16.4,16c0.2,5.1-0.2,10.2,0.2,15.3
		c0.1,1.5,1.3,3.7,2.6,4.4c18.5,10,28.9,33.9,20.9,55.7c-0.5,1.3,0.2,3.8,1.2,4.8c7.2,7.5,14.6,14.7,21.9,22c7,7.1,7,17,0.2,24.1
		c-6.5,6.7-16.7,6.9-23.8,0.4c-3.9-3.6-7.5-7.4-11.2-11.1c-3.7-3.7-7.2-7.5-10.9-11.2C211.8,166.8,211.5,167,211.1,167.2z
		 M204,167.9c-7.3,0-14.4,1.3-20.9-0.3c-9.7-2.3-19.1-4.3-29.1-3.7c-4.5,0.3-9,0-13.5,0c-6.9,0-13.8,0-20.7,0
		c-2.5,0-4.9-0.9-4.4-3.7c0.3-1.3,2.7-2.9,4.3-3.1c4-0.4,8.1-0.1,12.1-0.1c9.1,0,18.1,0,28.1,0c-1.8-2-3.4-3.1-4.1-4.6
		c-2.6-6-7.4-6.2-12.9-6c-7.9,0.3-15.9,0.2-23.8-0.1c-1.3-0.1-2.6-2.1-3.9-3.2c1.3-1.1,2.5-2.4,4.1-3.1c1.1-0.5,2.7-0.1,4-0.1
		c8.2,0,16.4,0,25,0c-0.6-2.3-1.4-4-1.5-5.7c-0.1-4.7-2.8-5.3-6.7-5.1c-6.7,0.3-13.5,0.1-20.2,0.1c-2.6,0-4.9-1-4.4-3.7
		c0.3-1.4,2.6-2.8,4.3-3.3c1.9-0.6,4.2-0.1,6.3-0.1c6.5,0,13,0,19.5,0c0.4-3.9,0.7-7.1,1-10.7c-8.7,0-16.9,0-25.2,0
		c-2.6,0-6.1,0.6-6-3.4c0.1-4,3.6-3.2,6.2-3.2c7.8-0.1,15.6,0.1,23.4-0.1c1.4,0,3.5-0.5,4.2-1.5c1.9-2.7,3.3-5.8,5.2-9.2
		c-11.8,0-23.1,0-34.3,0c-2.5,0-5.2-0.2-5.1-3.6c0.1-3.4,2.7-3.4,5.2-3.4c11.2,0,22.5-0.1,33.7,0.1c4.8,0.1,8.9-0.6,12.9-3.7
		c2.9-2.2,6.6-3.5,10-4.8c8.8-3.2,17.8-2.9,27.1-0.8c0-5.3,0-10.3,0-15.2c0-5.1-2.5-8.4-7.4-9.1c-3.6-0.5-7.4-0.1-11.1-0.1
		c-0.2,0.7-0.3,1.1-0.3,1.5c-0.6,10.6-3.4,13.2-14.1,13.2c-13.2,0-26.4,0-39.6,0c-11.8,0-14.1-2.2-14.9-13.8c0-0.3-0.3-0.5-0.7-1.2
		c-2.3,0-4.8,0-7.3,0c-7.6,0.1-10.8,3.4-10.8,11.1c0,37.3,0,74.7,0,112c0,7.7,3.1,10.8,10.9,10.8c18.1,0,36.3,0,54.4,0
		c10.5,0,21,0,31.5,0c6.1,0,9.3-3.4,9.3-9.5C204,174.1,204,170.9,204,167.9z M192.5,160.9c23-0.7,38.9-19.3,38-40.5
		c-1-22.7-20-39.4-42.2-38c-20.4,1.3-37.6,20.6-36.3,40.8C153.5,145.5,171.4,162.3,192.5,160.9z M151,60.7c7.8,0,15.6-0.1,23.4,0
		c3.1,0,4.4-1.2,4.3-4.3c-0.1-4.6-0.1-9.3,0-13.9c0-3-1.3-4.4-4.3-4.3c-3.6,0.1-7.2-0.1-10.8,0c-3.3,0.1-5.2-0.7-5.8-4.5
		c-0.5-3.5-3.5-5.3-6.9-5.2c-3.4,0.1-6,1.8-6.3,5.7c-0.3,2.9-1.8,4.1-4.8,4.1c-3.9-0.1-7.8,0-11.7,0c-3-0.1-4.3,1.3-4.3,4.3
		c0.1,4.5,0.2,9,0,13.5c-0.2,3.5,1.1,4.8,4.7,4.7C136,60.6,143.5,60.7,151,60.7z M218.7,161.6c6.5,7,13.8,15.3,21.6,23.2
		c3.7,3.7,9.7,2.8,13.3-1.1c3.5-3.7,3.8-9.3,0.3-13c-7.6-7.9-15.6-15.6-22.1-22.1C227,153.3,222.5,157.8,218.7,161.6z"/>
	<path class="st0" d="M183.7,133.9c8.5-8.6,16.8-16.8,25-25.1c0.8-0.8,1.6-2.2,2.6-2.4c1.5-0.4,3.2-0.1,4.8,0c0,1.6,0.5,3.6-0.3,4.8
		c-1.1,1.9-3,3.3-4.6,4.8c-7.8,7.8-15.7,15.6-23.4,23.5c-2.8,2.9-5.1,3-7.9,0c-3.8-4-7.8-7.9-11.7-11.8c-1.9-1.9-3.9-3.9-1.3-6.4
		c2.7-2.7,4.6,0,6.3,1.7C176.6,126.5,180,130.1,183.7,133.9z"/>
</g>
</svg>
