<?xml version="1.0" encoding="utf-8"?>
<!-- Generator: Adobe Illustrator 24.2.0, SVG Export Plug-In . SVG Version: 6.00 Build 0)  -->
<svg version="1.1" id="Layer_1" xmlns="http://www.w3.org/2000/svg" xmlns:xlink="http://www.w3.org/1999/xlink" x="0px" y="0px"
	 viewBox="0 0 400 200" style="enable-background:new 0 0 400 200;" xml:space="preserve">
<style type="text/css">
	.st0{fill:#003B4D;}
</style>
<g>
	<path class="st0" d="M228.2,55.1c2.3,0.4-4.3,12.3-8.4,18.3c-4,6.8-10.9,14.6-16.5,20.7C207.1,83.8,225.9,54.8,228.2,55.1z
		 M253.4,46.2c-10.6,3.3-31,36.8-37.9,58.6c-11.1,11.8-13.5,12.1-15.3,11.8c-3-0.5-3.1-2.8-3.1-4c0-2.3,1.5-5.5,3.4-8.6
		c0,0,4.9-5.5,4.9-5.5c6.5-7.3,13.2-14.9,18.9-23.7c0,0,2.3-4,2.3-4c3.9-6.5,8.3-13.8,8.3-18.6c0-0.7-0.1-1.3-0.3-1.8
		c-0.7-2.8-2.1-4.1-4.4-3.8c-10.8,3.3-29.7,34.1-36.5,55.6c-2,5.7-12.9,14.6-18.3,14.5c-0.5-0.1-1-0.2-1.3-0.7
		c-0.3-0.5-0.4-1.3-0.2-2c2.5-5.8,7.1-12,11-17.4c2.6-3.6,7.8-11.1,9.9-14.6l0.1-0.2l-0.2-0.2c-0.4-0.3-7.4-0.4-7.6-0.2l-0.1,0
		l-7.8,9.8c-6.7,7.8-13.6,15.8-22.3,20.8c-3.5,2.1-7,4.1-9.2,5.3c-1.3,0.7-1.6,0.9-1.8,1c-0.5,0.4-0.7,1-0.7,1.7
		c0,0.7,0.3,1.3,0.7,1.7l0.1,0.1l0.2,0c5.1-0.9,16.7-7.8,22.7-12.4c-0.2,0.5-0.5,1.2-0.8,1.7c-0.6,1.2-0.8,1.7-0.8,1.9
		c0,0,0-0.1,0-0.1c-1.1,3.1-0.6,7.5,2.3,8.7l0,0l0,0c7.6,1.5,18.8-7.1,20.9-9c0.3,4.5,1.8,8.2,7.5,9.1c4.5,0.7,10.4-2.2,17.4-9.6
		c0,0.2,0,0.4,0,0.5c0,4.5,2.3,8.1,5.8,9c2.4,0.6,10.8,0.8,19.4-20.6c1.1,1.1,3.3,3.1,5.9,3.7c-1.3,3.3-2.1,5.8-2.1,8.1
		c0,2.1,0.7,4,2.5,6.1c3.7,4.2,11,3.8,17.4-1.4c4.5-3.6,8.9-8.6,13.1-14.7c2.6-3.8,8.1-12.1,10.3-15.6c0.1-0.1,0.1-0.1,0.1-0.2
		c0.2,1.1,0.6,3.6,4,4.6c-3.1,4.1-10,11.4-11.1,21.2c0,0.4,0,1.2,0,1.8c0.3,2.4,1.2,5.1,3.8,6.6c2.6,1.4,9.2,0.5,20.4-12
		c0,0.4,0.1,0.7,0.1,1.1c0,0.5,0,1,0,1.6c0,0.5,0,1.1,0.1,1.7c0.3,5,2.5,6.6,2.5,6.6c7.3,5.6,18.6-4.2,25.9-15.9
		c3.3-5.3,7-11.3,5.1-12.5l-0.3-0.2l-0.2,0.3c-4.6,6.7-15.6,24.9-22.7,24.9c-1.1,0-1.7-1-2-2.8c-0.1-0.5-0.1-1-0.1-1.5
		c0-3.9,2.1-8.2,3.8-11.8l0.7-1.4c4-6.7,11.6-18.9,12.5-19.8c0.3,0,22.3,0,22.3,0c0.4,0,0.8-0.4,1.3-1.2c0.5-1,1.1-2.7,0.5-3.5
		c-0.2-0.2-0.5-0.4-1-0.3c-12.4,0-16.3-0.1-20.5-0.3c0.1-0.4,7.1-11.6,12.1-19.8l-8.8,0.2c-2.9,4.6-8.7,15.4-11.9,19.8
		c-0.7,0.1-5,0-8.8,0c-5.8-0.1-9.3-0.1-10,0c0,0,0,0-0.1,0c0,0,0,0,0,0c0,0,0,0,0,0c-0.3,0-0.7,0.3-1.1,0.9
		c-0.6,0.8-1.3,2.2-1.3,3.3c0,0.2,0,0.5,0.1,0.7l0,0.1l0,0c0.2,0.2,0.3,0.2,12.4,0.1c2.1,0,4,0,4.9,0c-3.3,6.4-12.1,21.9-20.2,29.6
		c0,0-3.3,3.2-3.3,3.2c-2.7,2.3-6,5.2-8.2,4.3c-0.9-0.3-1.1-1-1.3-1.5c-2.3-5.5,6.6-17,9.4-20.8c1.4-1.9,3.1-3.7,3.8-4.9l0.1-0.2
		l-0.1-0.2c-0.1-0.2-0.3-0.2-1-0.2c-1,0-2.9,0-5-0.7c-3.2-1.6-2.6-3.4-1.4-6l0.1-0.2l-0.1-0.2c-0.8-1.2-2.9-1.4-6.2-0.7l-0.2,0
		c-0.7,0-1.6,1.4-5.3,7.3c-4.3,6.8-10.7,17.2-17.2,23.4c-3,2.8-8.5,7.1-12.5,3.8c-0.7-0.6-1.1-1.8-1.1-3.1c0-2.4,1-5.4,2.5-7.4
		c7.4-1,18.6-7.6,21.7-14.3c0.9-1.9,1.2-3.5,1.2-4.7c0-2.3-1.2-3.6-2.4-4.4c-1.1-0.6-3.2-1.1-6-0.3c-4.4,1.2-11.2,5.4-18.7,18.9
		c-4.7-1.8-5.7-4.5-6.3-6c-0.2-0.5-0.3-0.8-0.5-1.1l-0.1-0.2l-0.2,0.1c-0.3,0.1-2.4,0.1-3.6,0.2c-2.3,0-2.3,0-2.4,0.3l-0.1,0.1
		l0,0.1c0.9,5.1-3.2,14.2-7.6,19.4c-1.9,2.3-3.7,3.6-4.9,3.6c-0.9,0-1.6-0.3-1.9-0.9c-0.3-0.5-0.5-1.2-0.5-1.9c0-2.8,1.8-7,2.6-8.9
		c0,0,0.3-0.6,0.3-0.7c0.1-0.1,3.4-3.9,3.4-3.9c7.1-8,14.4-16.4,20.4-25.9c0,0,2.4-4,2.4-4c3.9-6.5,8.3-13.8,8.3-18.6
		c0-0.7-0.1-1.3-0.3-1.8C257.1,47.3,255.6,46,253.4,46.2z M145.9,118.2C145.9,118.2,145.9,118.2,145.9,118.2
		C145.9,118.2,145.9,118.2,145.9,118.2C145.9,118.2,145.9,118.2,145.9,118.2z M145.8,118.3C145.8,118.3,145.9,118.2,145.8,118.3
		C145.9,118.2,145.8,118.2,145.8,118.3z M270.6,86.3c0.7,0.1,1.1,0.6,1.3,1.3h0c0,0.1,0,0.2,0,0.4c0,0.6-0.3,1.4-1,2.3
		c-3,4.2-11.4,9.7-15.7,10.5C265,87,269.3,86,270.6,86.3z M272.6,87.4L272.6,87.4L272.6,87.4L272.6,87.4z M251.4,55.1
		c0.1,0,0.1,0,0.1,0.1c0,0.1,0.1,0.2,0.1,0.4c0,2.5-5,11.6-8.8,17.3c-3,5.1-8,11.4-15.2,19.3C232.7,80.1,249.5,55.2,251.4,55.1z"/>
	<path class="st0" d="M191.8,71.6c0.8-2.6,3.5-4.7,6.1-4.8c2.5-0.1,4,1.9,3.1,4.5c-0.8,2.5-3.5,4.7-6.1,4.8
		C192.4,76.1,191,74.1,191.8,71.6z"/>
	<path class="st0" d="M143.7,100.6c3.6-12.2,13.7-44.4,21-58.7c-2.9,0-5.7,0-7.3,0c-14.9,19.7-26.6,33.1-47.9,58.3
		c2.8-5.4,2.4-6.3,9.3-19.5c6.9-13.3,17.8-28.8,9-46.6c-5-7.8-14.3-11.4-23.7-10.8c-28.3,1.6-52.2,23.5-57.6,51.5
		c-2.4,12.2-1.3,28.3,8.4,36.9c3.6,3,8.3,3.6,12.6,3.5c6.9-1.1,10.9-4.1,15.6-14c-3.1,3-13.5,9.1-21.2,4.2
		c-7.2-5.1-10-14.3-10.1-23.5c-1-23,19.6-47.9,43.2-52.7c30-6.1,27.9,20.2,25.9,27.2c-2,7.1-30.9,64.8-30.9,64.8c0,0,9.2,0,9.2,0
		c12.6-17.4,44.1-52.5,44.1-52.5c-4.7,14.6-12.9,44.3-14.7,50.8c0,0,0,0,0,0l0,0c-0.2,0.8-0.6,1.7-0.6,1.7s8.8,0,9.5,0
		c4.4-7.7,54.9-89.1,135.2-89.1l7.3-10.4C279.9,21.6,210.7,15.2,143.7,100.6z"/>
	<g>
		<path class="st0" d="M337.9,111c3.1,0,5.5,2.5,5.5,5.6c0,3.2-2.5,5.7-5.6,5.7c-3.1,0-5.6-2.5-5.6-5.7
			C332.3,113.5,334.8,111,337.9,111L337.9,111z M337.9,111.9c-2.5,0-4.5,2.1-4.5,4.8c0,2.7,2,4.8,4.5,4.8c2.5,0,4.5-2.1,4.5-4.8
			S340.4,111.9,337.9,111.9L337.9,111.9z M336.8,119.9h-1v-6.3c0.5-0.1,1-0.2,1.8-0.2c1,0,1.6,0.2,2,0.5c0.4,0.3,0.6,0.7,0.6,1.3
			c0,0.8-0.6,1.3-1.2,1.5v0.1c0.6,0.1,0.9,0.6,1.1,1.5c0.2,1,0.3,1.4,0.4,1.6h-1.1c-0.2-0.2-0.3-0.8-0.4-1.6
			c-0.2-0.8-0.6-1.1-1.4-1.1h-0.7V119.9z M336.8,116.4h0.7c0.8,0,1.5-0.3,1.5-1.1c0-0.6-0.4-1.1-1.5-1.1c-0.3,0-0.6,0-0.7,0V116.4z"
			/>
	</g>
</g>
<g>
	<path class="st0" d="M29.5,160.5c0.1-0.3,0.1-0.5,0.4-0.5c0.2,0,0.3,0.1,0.3,0.4c0,0.2-0.3,1.4-0.5,2.7c-2,1-4.4,1.7-6.7,1.7
		c-4.5,0-7.7-2.9-7.7-7.8c0-7,5.1-12.5,11.8-12.5c1.5,0,3.1,0.3,4.5,0.8c-0.2,2.5-0.3,2.6-0.6,2.6c-0.3,0-0.3-0.2-0.4-0.4
		c-0.1-1.6-2.7-2-3.9-2c-4.8,0-8.9,4.5-8.9,10.9c0,4,1.8,7.3,6.2,7.3C26.6,163.7,29.1,161.8,29.5,160.5z"/>
	<path class="st0" d="M40,150.7c2.5,0,3.9,1.9,3.9,4.5c0,5.2-3.4,9.4-7.2,9.4c-2.5,0-3.9-1.9-3.9-4.5C32.9,155,36.3,150.7,40,150.7z
		 M37.5,163.8c3.2,0,4.2-5.2,4.2-7.8c0-1.6-0.3-4.3-2.3-4.3c-3.2,0-4.2,5.2-4.2,7.8C35.2,161,35.5,163.8,37.5,163.8z"/>
	<path class="st0" d="M44.8,152.3c1.4-1,3.6-1.6,4.4-1.6c0.1,0,0.3,0,0.3,0.6c0,1.1-0.4,3.6-0.6,5l0.1,0.1c0.8-1.9,3.2-5.7,5.1-5.7
		c1.1,0,1.9,1.1,1.9,2.8c0,0.5-0.1,1.8-0.2,2.9l0.1,0.1c0.8-1.9,3.2-5.7,5.4-5.7c1.1,0,1.9,1.1,1.9,2.8c0,1-0.2,3-0.5,4.8
		c-0.3,1.8-0.5,3.4-0.5,3.7c0,0.7,0.2,0.8,0.4,0.8c0.4,0,1.5-0.7,2-1l0.3,0.6c-1.8,1.7-3.8,2.1-4.3,2.1c-0.2,0-0.6-0.2-0.6-1.3
		c0-0.7,0.9-7.4,0.9-8.9c0-1.4-0.3-1.7-0.9-1.7c-0.6,0-3.9,2.5-4.8,9.1l-0.3,2.4h-2.2c0.6-4.4,1.2-8.9,1.2-9.9
		c0-0.8-0.1-1.7-0.8-1.7c-1.1,0-4,2.9-4.8,8.9l-0.4,2.6h-2.2c0.6-3.7,1.1-7.4,1.4-10.9c0-0.7-0.1-1-0.4-1c-0.3,0-1.1,0.3-1.7,0.8
		L44.8,152.3z"/>
	<path class="st0" d="M65.2,152.3c1.4-1,3.6-1.6,4.4-1.6c0.1,0,0.3,0,0.3,0.6c0,1.1-0.4,3.6-0.6,5l0.1,0.1c0.8-1.9,3.2-5.7,5.1-5.7
		c1.1,0,1.9,1.1,1.9,2.8c0,0.5-0.1,1.8-0.2,2.9l0.1,0.1c0.8-1.9,3.2-5.7,5.4-5.7c1.1,0,1.9,1.1,1.9,2.8c0,1-0.2,3-0.5,4.8
		c-0.3,1.8-0.5,3.4-0.5,3.7c0,0.7,0.2,0.8,0.4,0.8c0.4,0,1.5-0.7,2-1l0.3,0.6c-1.8,1.7-3.8,2.1-4.3,2.1c-0.2,0-0.6-0.2-0.6-1.3
		c0-0.7,0.9-7.4,0.9-8.9c0-1.4-0.3-1.7-0.9-1.7c-0.6,0-3.9,2.5-4.8,9.1l-0.3,2.4H73c0.6-4.4,1.2-8.9,1.2-9.9c0-0.8-0.1-1.7-0.8-1.7
		c-1.1,0-4,2.9-4.8,8.9l-0.4,2.6h-2.2c0.6-3.7,1.1-7.4,1.4-10.9c0-0.7-0.1-1-0.4-1c-0.3,0-1.1,0.3-1.7,0.8L65.2,152.3z"/>
	<path class="st0" d="M88.6,159.6c0,1.8,0.5,3.8,2.6,3.8c1.5,0,2.9-1.1,4-2.1l0.3,0.5c-1.4,1.6-3.4,2.8-5.5,2.8
		c-2.8,0-3.8-2.3-3.8-5c0-4.2,3-8.9,7.2-8.9c1.2,0,2,0.4,2,1.7v0.8c0.6-0.5,0.9-1,1.1-1c0.1,0,0.1,0.1,0.1,0.2c0,0.2,0,0.5-0.1,0.7
		c-1.2,1.2-5.6,4.1-7.8,5.7V159.6z M93.4,154.5c0.1-0.4,0.1-0.8,0.1-1.4c0-0.7-0.2-1.5-1.1-1.5c-2.5,0-3.9,4.1-3.9,6.3L93.4,154.5z"
		/>
	<path class="st0" d="M96.5,152.3c1.4-1,3.6-1.6,4.4-1.6c0.1,0,0.3,0,0.3,0.6c0,1.1-0.4,3.6-0.6,5l0.1,0.1c0.8-1.9,3.2-5.7,5.1-5.7
		c1.1,0,1.9,1.1,1.9,2.8c0,0.5-0.1,1.8-0.2,2.9l0.1,0.1c0.8-1.9,3.2-5.7,5.4-5.7c1.1,0,1.9,1.1,1.9,2.8c0,1-0.2,3-0.5,4.8
		c-0.3,1.8-0.5,3.4-0.5,3.7c0,0.7,0.2,0.8,0.4,0.8c0.4,0,1.5-0.7,2-1l0.3,0.6c-1.8,1.7-3.8,2.1-4.3,2.1c-0.2,0-0.6-0.2-0.6-1.3
		c0-0.7,0.9-7.4,0.9-8.9c0-1.4-0.3-1.7-0.9-1.7c-0.6,0-3.9,2.5-4.8,9.1l-0.3,2.4h-2.2c0.6-4.4,1.2-8.9,1.2-9.9
		c0-0.8-0.1-1.7-0.8-1.7c-1.1,0-4,2.9-4.8,8.9l-0.4,2.6h-2.2c0.6-3.7,1.1-7.4,1.4-10.9c0-0.7-0.1-1-0.4-1c-0.3,0-1.1,0.3-1.7,0.8
		L96.5,152.3z"/>
	<path class="st0" d="M124.6,150.7c2.5,0,3.9,1.9,3.9,4.5c0,5.2-3.4,9.4-7.2,9.4c-2.5,0-3.9-1.9-3.9-4.5
		C117.5,155,120.9,150.7,124.6,150.7z M122.1,163.8c3.2,0,4.2-5.2,4.2-7.8c0-1.6-0.3-4.3-2.3-4.3c-3.2,0-4.2,5.2-4.2,7.8
		C119.8,161,120.1,163.8,122.1,163.8z"/>
	<path class="st0" d="M130,152.3c1.4-1,3.6-1.6,4.4-1.6c0.1,0,0.3,0,0.3,0.6c0,1.1-0.4,3.6-0.6,5l0.1,0.1c1.3-2.9,3-5.7,5-5.7
		c0.5,0,1.1,0.2,1.1,0.9c0,0.8-0.8,1-1.4,1c-0.4,0-0.8-0.1-1.1-0.3c-0.6,0.2-3.3,2.9-4.2,9.1l-0.4,2.6H131c0.6-3.7,1.1-7.4,1.4-10.9
		c0-0.7-0.1-1-0.4-1c-0.3,0-1.1,0.3-1.7,0.8L130,152.3z"/>
	<path class="st0" d="M152.8,162.6c-1.8,1.7-3.8,2.1-4.3,2.1c-0.2,0-0.6-0.2-0.6-1.3c0-1,0.1-2.4,0.3-4h-0.1
		c-0.9,2.2-2.9,5.2-5.3,5.2c-2,0-2.7-2.3-2.7-4c0-4.9,3.6-9.7,8.2-9.7c0.6,0,1.5,0.1,2.3,0.2c0-0.8,0.1-0.9,1.1-0.9
		c-0.7,3.7-1.3,7.4-1.5,12.1c0,0.7,0.2,0.8,0.4,0.8c0.4,0,1.5-0.7,2-1L152.8,162.6z M148.7,154.7l0.4-2.8c-0.3-0.1-0.6-0.2-0.9-0.2
		c-3.6,0-5.9,3.8-5.9,8.3c0,1,0.2,2.9,1.6,2.9C145.2,162.9,147.9,160.9,148.7,154.7z"/>
	<path class="st0" d="M157.4,151.3h2.7l-0.1,0.8h-2.7c-0.7,3.5-1.3,7.5-1.3,9.5c0,0.7,0.1,1.6,0.9,1.6c0.7,0,1.7-0.5,2.6-1.2
		l0.3,0.6c-1.1,1-2.9,2-4.3,2c-1.3,0-1.8-0.9-1.8-2.2c0-2.6,0.7-7,1.4-10.3h-1.5l0.1-0.8c0.5,0,1.1,0,1.4-0.2
		c0.5-0.3,1.6-2.7,2.1-3.7l0.8-0.1L157.4,151.3z"/>
	<path class="st0" d="M160.8,152.3c1.4-1,3.6-1.6,4.4-1.6c0.1,0,0.3,0,0.3,0.6c0,0.9-1.2,10-1.2,10.9c0,0.7,0.2,0.8,0.4,0.8
		c0.4,0,1.5-0.7,2-1l0.3,0.6c-1.8,1.7-3.8,2.1-4.3,2.1c-0.2,0-0.6-0.2-0.6-1.3c0-0.7,1.1-9.5,1.1-10.2c0-0.7-0.1-1-0.4-1
		c-0.3,0-1.1,0.3-1.7,0.8L160.8,152.3z M163.3,147.2c0-0.9,0.8-1.8,1.6-1.8c0.6,0,0.9,0.5,0.9,1.1c0,0.8-0.7,1.8-1.5,1.8
		C163.7,148.2,163.3,147.8,163.3,147.2z"/>
	<path class="st0" d="M168.6,164.1c0.6-3.7,1.1-7.4,1.4-10.9c0-0.7-0.1-1-0.4-1c-0.3,0-1.1,0.3-1.7,0.8l-0.2-0.6
		c1.4-1,3.6-1.6,4.4-1.6c0.1,0,0.3,0,0.3,0.6c0,1.1-0.4,3.6-0.6,5l0.1,0.1c0.8-1.9,3.2-5.7,5.3-5.7c1.5,0,2,1.4,2,2.8
		c0,2.1-0.9,7.8-0.9,8.5c0,0.7,0.2,0.8,0.4,0.8c0.4,0,1.5-0.7,2-1l0.3,0.6c-1.8,1.7-3.8,2.1-4.3,2.1c-0.2,0-0.6-0.2-0.6-1.3
		c0-0.7,0.9-7.4,0.9-8.9c0-1.4-0.3-1.7-0.9-1.7c-1.1,0-4,2.9-4.8,8.9l-0.4,2.6H168.6z"/>
	<path class="st0" d="M185.6,164.4L185.6,164.4c-0.8-0.5-1.9-1.1-1.9-2.2c0-0.8,0.7-1.7,1.1-2.2c-1.5-0.6-2.1-1.7-2.1-3.4
		c0-3,2.5-5.8,5.4-5.8c0.9,0,1.5,0.2,2.1,0.4c0.6,0.2,1.1,0.4,1.7,0.4c0.8,0,1-0.3,1.1-0.5c0.1-0.3,0.2-0.5,0.5-0.5
		c0.1,0,0.2,0.1,0.2,0.3c0,0.2,0,0.6-0.2,1.2c-0.1,0.7-0.2,0.8-1.9,0.6c0.2,0.6,0.3,1.1,0.3,1.7c0,3.2-2.5,5.9-5.5,5.9
		c-0.3,0-0.5-0.1-0.7-0.1c-0.3,0.3-0.5,0.6-0.5,1c0,0.8,1,1.4,3.5,2.3c1.8,0.6,4.3,1.4,4.3,3.9c0,2.6-3.1,4.5-7.1,4.5
		c-2,0-5.2-0.5-5.2-3.3C180.7,166.1,183.7,164.7,185.6,164.4z M182.7,168.2c0,2.2,2.1,2.9,3.8,2.9c1.7,0,4.4-0.9,4.4-3.1
		c0-0.9-0.2-1.9-4.2-3.1C185,165.1,182.7,166.1,182.7,168.2z M186.8,159.3c2.3,0,2.9-2.8,2.9-4.8c0-1.3-0.4-3-1.9-3
		c-2.1,0-3,2.5-3,4.4C184.9,157.4,185.2,159.3,186.8,159.3z"/>
	<path class="st0" d="M200,163.2h1.3c0.2,0,0.5-0.1,0.6-0.5c0.9-7,1.9-14.4,1.9-15.8c0-0.8-0.3-0.9-0.7-0.9h-1.5l0.1-0.9h6.6
		l-0.1,0.9h-1.3c-0.2,0-0.5,0.1-0.6,0.5c-0.8,6.8-1.9,14.5-1.9,15.5c0,0.5,0,1,0.9,1h1.8c3.5,0,5.7,0,6.6-1.6
		c0.1-0.2,0.1-0.3,0.3-0.3c0.2,0,0.3,0.1,0.3,0.3c0,0.4-0.2,1.1-0.7,2.7h-13.8L200,163.2z"/>
	<path class="st0" d="M215,152.3c1.4-1,3.6-1.6,4.4-1.6c0.1,0,0.3,0,0.3,0.6c0,0.9-1.2,10-1.2,10.9c0,0.7,0.2,0.8,0.4,0.8
		c0.4,0,1.5-0.7,2-1l0.3,0.6c-1.8,1.7-3.8,2.1-4.3,2.1c-0.2,0-0.6-0.2-0.6-1.3c0-0.7,1.1-9.5,1.1-10.2c0-0.7-0.1-1-0.4-1
		c-0.3,0-1.1,0.3-1.7,0.8L215,152.3z M217.5,147.2c0-0.9,0.8-1.8,1.6-1.8c0.6,0,0.9,0.5,0.9,1.1c0,0.8-0.7,1.8-1.5,1.8
		C217.9,148.2,217.5,147.8,217.5,147.2z"/>
	<path class="st0" d="M226.8,152.1c-0.4,4-1,10.5-1.2,12c-0.3,1.5-1.3,7.4-6.2,7.4c-0.8,0-1.8-0.5-1.8-1.2c0-0.5,0.5-0.8,0.9-0.8
		c0.7,0,1.3,0.5,1.7,1.1c2.5-0.2,3.1-4.3,3.2-5.4c0.1-1.1,0.7-5.9,1.4-13.2h-1.9l0.1-0.8h1.8l0.3-2.2c0.6-3.7,2.4-6.4,5.5-6.4
		c0.5,0,1.7,0.3,1.7,1.2c0,0.5-0.4,0.7-0.8,0.7c-0.7,0-1.1-0.5-1.6-1c-1.9,0.2-2.7,2.9-3,7.7h2.2l-0.1,0.8H226.8z"/>
	<path class="st0" d="M232.1,159.6c0,1.8,0.5,3.8,2.6,3.8c1.5,0,2.9-1.1,4-2.1l0.3,0.5c-1.4,1.6-3.4,2.8-5.5,2.8
		c-2.8,0-3.8-2.3-3.8-5c0-4.2,3-8.9,7.2-8.9c1.2,0,2,0.4,2,1.7v0.8c0.6-0.5,0.9-1,1.1-1c0.1,0,0.1,0.1,0.1,0.2c0,0.2,0,0.5-0.1,0.7
		c-1.2,1.2-5.6,4.1-7.8,5.7V159.6z M236.9,154.5c0.1-0.4,0.1-0.8,0.1-1.4c0-0.7-0.2-1.5-1.1-1.5c-2.5,0-3.9,4.1-3.9,6.3L236.9,154.5
		z"/>
	<path class="st0" d="M244.3,152.6c1.1-0.9,3.2-1.9,3.6-1.9c0.2,0,0.3,0.1,0.5,0.7c0.1,0.4,1.1,2.9,1.5,9.7h0.1
		c1.7-2.6,3.4-6,4.3-9.4c0.1-0.3,0.2-0.5,0.4-0.5s0.3,0.1,0.4,0.5c0.3,0.8,1.1,2.9,2.3,9.5c1.8-2.4,3.1-6.6,3.1-8.4c0-1-1-0.6-1-1.1
		c0-0.3,0.2-0.4,0.4-0.4h2.2c-0.3,2.2-1.4,7.3-5.5,13c-0.2,0.2-0.3,0.5-0.6,0.5c-0.3,0-0.3-0.3-0.4-0.7c-0.1-2.8-0.8-5.9-1.6-8.5
		c-1,2.2-4.1,7.6-5,8.7c-0.2,0.2-0.3,0.5-0.6,0.5c-0.3,0-0.3-0.3-0.4-0.7c-0.3-6.7-1.2-11.5-2-11.5c-0.3,0-0.9,0.2-1.5,0.5
		L244.3,152.6z"/>
	<path class="st0" d="M263.4,152.3c1.4-1,3.6-1.6,4.4-1.6c0.1,0,0.3,0,0.3,0.6c0,0.9-1.2,10-1.2,10.9c0,0.7,0.2,0.8,0.4,0.8
		c0.4,0,1.5-0.7,2-1l0.3,0.6c-1.8,1.7-3.8,2.1-4.3,2.1c-0.2,0-0.6-0.2-0.6-1.3c0-0.7,1.1-9.5,1.1-10.2c0-0.7-0.1-1-0.4-1
		c-0.3,0-1.1,0.3-1.7,0.8L263.4,152.3z M265.9,147.2c0-0.9,0.8-1.8,1.6-1.8c0.6,0,0.9,0.5,0.9,1.1c0,0.8-0.7,1.8-1.5,1.8
		C266.3,148.2,265.9,147.8,265.9,147.2z"/>
	<path class="st0" d="M274.9,151.3h2.7l-0.1,0.8h-2.7c-0.7,3.5-1.3,7.5-1.3,9.5c0,0.7,0.1,1.6,0.9,1.6c0.7,0,1.7-0.5,2.6-1.2
		l0.3,0.6c-1.1,1-2.9,2-4.3,2c-1.3,0-1.8-0.9-1.8-2.2c0-2.6,0.7-7,1.4-10.3h-1.5l0.1-0.8c0.5,0,1.1,0,1.4-0.2
		c0.5-0.3,1.6-2.7,2.1-3.7l0.8-0.1L274.9,151.3z"/>
	<path class="st0" d="M278.8,144.3c1.3-0.8,3.6-1.3,4.6-1.3c0.2,0,0.3,0.1,0.3,0.6c0,1.6-0.9,7.9-1.6,12.8l0.1,0.1
		c0.8-1.9,3.2-5.7,5.3-5.7c1.5,0,2,1.4,2,2.8c0,2.1-0.9,7.8-0.9,8.5c0,0.7,0.2,0.8,0.4,0.8c0.4,0,1.5-0.7,2-1l0.3,0.6
		c-1.8,1.7-3.8,2.1-4.3,2.1c-0.2,0-0.6-0.2-0.6-1.3c0-0.7,0.9-7.4,0.9-8.9c0-1.4-0.3-1.7-0.9-1.7c-1.1,0-4,2.9-4.8,8.9l-0.4,2.6
		h-2.2c1.4-9.7,2.3-17.5,2.3-19c0-0.4,0-0.8-0.4-0.8c-0.3,0-0.8,0.1-1.9,0.6L278.8,144.3z"/>
	<path class="st0" d="M299.6,145h7.2c4.6,0,5.2,2.9,5.2,4.6c0,2.8-2.4,4.8-4.8,5.5c1.5,3.6,4,7.3,5,7.9c0.3,0.2,0.5,0.2,1.4,0.2
		l-0.1,0.9H310c-0.8,0-4.1-6.8-4.8-8.5H303c-0.3,2.4-0.8,5.5-0.8,6.7c0,0.8,0.3,0.9,0.7,0.9h1.5l-0.1,0.9h-6.6l0.1-0.9h1.3
		c0.2,0,0.5-0.1,0.6-0.5c0.9-7,1.9-14.4,1.9-15.8c0-0.8-0.3-0.9-0.7-0.9h-1.5L299.6,145z M304.5,154.7c2.4,0,5.1-1.3,5.1-5
		c0-3.1-2-3.6-4.8-3.6c-0.4,0-0.6,0.2-0.6,0.4l-1,8.2H304.5z"/>
	<path class="st0" d="M316.6,159.6c0,1.8,0.5,3.8,2.6,3.8c1.5,0,2.9-1.1,4-2.1l0.3,0.5c-1.4,1.6-3.4,2.8-5.5,2.8
		c-2.8,0-3.8-2.3-3.8-5c0-4.2,3-8.9,7.2-8.9c1.2,0,2,0.4,2,1.7v0.8c0.6-0.5,0.9-1,1.1-1c0.1,0,0.1,0.1,0.1,0.2c0,0.2,0,0.5-0.1,0.7
		c-1.2,1.2-5.6,4.1-7.8,5.7V159.6z M321.4,154.5c0.1-0.4,0.1-0.8,0.1-1.4c0-0.7-0.2-1.5-1.1-1.5c-2.5,0-3.9,4.1-3.9,6.3L321.4,154.5
		z"/>
	<path class="st0" d="M332.4,152.9c-0.8,0-1.5-0.5-1.8-1.3c-2,0-2.7,1.2-2.7,2.2c0,2.5,5.2,3.4,5.2,7.1c0,2.5-2.8,3.8-4.8,3.8
		c-1,0-3.6-0.5-3.6-1.9c0-0.5,0.4-0.8,0.9-0.8c0.9,0,1.6,0.8,1.9,1.7c0.3,0.2,0.5,0.2,0.8,0.2c1.4,0,2.6-0.8,2.6-2.3
		c0-2.6-5-3.9-5-6.8c0-2.5,2.7-3.9,4.8-3.9c0.7,0,2.7,0.3,2.7,1.4C333.3,152.7,332.9,152.9,332.4,152.9z"/>
	<path class="st0" d="M334.4,152.3c1.4-1,3.6-1.6,4.4-1.6c0.1,0,0.3,0,0.3,0.6c0,0.8-0.1,2.8-0.5,4.6h0.1c0.9-2.1,2.8-5.2,5.2-5.2
		c2.1,0,2.7,2.4,2.7,4.4c0,4.9-3.6,9.5-8.5,9.5h-0.7c-0.2,1.8-0.6,4.7-0.6,5.5c0,0.8,0.3,0.9,0.7,0.9h2.3l-0.1,0.8h-6.6l0.1-0.8h0.7
		c0.2,0,0.5-0.1,0.6-0.4c0.2-1.2,2.2-16.6,2.2-17.5c0-0.7-0.1-1-0.4-1c-0.3,0-1.1,0.3-1.7,0.8L334.4,152.3z M337.6,163.7
		c0.3,0.1,0.7,0.1,1.2,0.1c2.1,0,5.6-2.5,5.6-8.3c0-0.9-0.2-3-1.5-3c-1.7,0-3.3,3.1-3.9,4.5C338.4,158.7,338.1,160.6,337.6,163.7z"
		/>
	<path class="st0" d="M350.3,159.6c0,1.8,0.5,3.8,2.6,3.8c1.5,0,2.9-1.1,4-2.1l0.3,0.5c-1.4,1.6-3.4,2.8-5.5,2.8
		c-2.8,0-3.8-2.3-3.8-5c0-4.2,3-8.9,7.2-8.9c1.2,0,2,0.4,2,1.7v0.8c0.6-0.5,0.9-1,1.1-1c0.1,0,0.1,0.1,0.1,0.2c0,0.2,0,0.5-0.1,0.7
		c-1.2,1.2-5.6,4.1-7.8,5.7V159.6z M355.1,154.5c0.1-0.4,0.1-0.8,0.1-1.4c0-0.7-0.2-1.5-1.1-1.5c-2.5,0-3.9,4.1-3.9,6.3L355.1,154.5
		z"/>
	<path class="st0" d="M367.9,162.1c-1.3,1.5-3.3,2.5-5.2,2.5c-2.7,0-3.9-1.9-3.9-4.7c0-4.8,3.7-9.2,7.4-9.2c0.6,0,2.3,0.3,2.3,1.2
		c0,0.6-0.5,0.8-1,0.8c-0.8,0-1.5-0.5-1.9-1.2c-3.1,0.7-4.3,4.9-4.3,7.9c0,1.9,0.4,4,2.5,4c1.4,0,2.8-0.8,3.8-1.8L367.9,162.1z"/>
	<path class="st0" d="M373.7,151.3h2.7l-0.1,0.8h-2.7c-0.7,3.5-1.3,7.5-1.3,9.5c0,0.7,0.1,1.6,0.9,1.6c0.7,0,1.7-0.5,2.6-1.2
		l0.3,0.6c-1.1,1-2.9,2-4.3,2c-1.3,0-1.8-0.9-1.8-2.2c0-2.6,0.7-7,1.4-10.3H370l0.1-0.8c0.5,0,1.1,0,1.4-0.2
		c0.5-0.3,1.6-2.7,2.1-3.7l0.8-0.1L373.7,151.3z"/>
	<path class="st0" d="M380.4,150.5C380.4,150.5,380.4,150.5,380.4,150.5c-0.1,0.1-0.1,0-0.1,0c0-0.3-0.6-0.4-0.9-0.4
		c-0.7,0-1,0.5-1,0.9c0,1.3,2.4,0.8,2.4,2.5c0,0.9-0.8,1.5-1.7,1.5c-0.3,0-0.8-0.1-1.1-0.2c-0.1-0.4-0.1-0.6-0.1-0.7
		c0-0.1,0-0.1,0.1-0.1c0.1,0,0.1,0.1,0.1,0.1c0.1,0.4,0.8,0.6,1.1,0.6c0.6,0,1.2-0.3,1.2-1c0-1.5-2.3-0.8-2.3-2.5
		c0-0.8,0.8-1.3,1.6-1.3c0.2,0,0.5,0,0.8,0.1V150.5z"/>
	<path class="st0" d="M381.7,150.7c0-0.3-0.1-0.6-0.3-0.6h-0.3v-0.2h1l1.7,4l1.6-4h0.9v0.2H386c-0.1,0-0.2,0-0.2,0.1v3.2
		c0,1.1,0.1,1.1,0.2,1.1h0.4v0.2H385v-0.2h0.3c0.1,0,0.1,0,0.1-0.1v-3.9l0,0l-1.6,4.1c0,0,0,0,0,0c0,0,0,0-0.1-0.1l-1.7-4h0v2.8
		c0,1.1,0.1,1.1,0.2,1.1h0.4v0.2h-1.3v-0.2h0.3c0.1,0,0.1,0,0.1-0.1V150.7z"/>
</g>
</svg>
