<?xml version="1.0" encoding="utf-8"?>
<!-- Generator: Adobe Illustrator 24.2.0, SVG Export Plug-In . SVG Version: 6.00 Build 0)  -->
<svg version="1.1" id="Layer_1" xmlns="http://www.w3.org/2000/svg" xmlns:xlink="http://www.w3.org/1999/xlink" x="0px" y="0px"
	 viewBox="0 0 350 225" style="enable-background:new 0 0 350 225;" xml:space="preserve">
<style type="text/css">
	.st0{fill:#FFFFFF;}
</style>
<g>
	<path class="st0" d="M172.5,126.3c0,0.5,0,1,0,1.5c0,18.1,0,36.2,0,54.4c0,2-0.7,3.3-2.5,4.3c-14.4,7.8-28.7,15.8-43.1,23.6
		c-1.2,0.7-2.5,0.7-3.8,0c-12.6-6.9-25.2-13.8-37.7-20.7c-1.9-1-3.7-2.1-5.6-3c-1.7-0.8-2.3-2.2-2.3-4c0-3.6,0-7.1,0-10.7
		c0-15.4,0-30.7,0-46.1c0-2.2,0.9-3.6,2.9-4.5c11-5.2,22-10.4,33-15.7c3.8-1.8,7.5-3.6,11.3-5.3c0.7-0.3,1.5-0.4,2.5-0.6
		c0-0.2,0-0.6,0-1c0-19,0-38,0-57c0-2.1,0.8-3.4,2.7-4.3c14.8-7,29.6-14,44.4-21.1c1.2-0.6,2.3-0.6,3.4,0
		c14,7.1,27.9,14.2,41.9,21.3c1.5,0.8,2.2,1.9,2.2,3.6c0,19.5,0,39,0,58.6c0,0.1,0,0.2,0.1,0.6c1.7-1,3.2-0.1,4.6,0.6
		c13.6,6.9,27.2,13.8,40.8,20.7c1.5,0.8,2.2,1.9,2.2,3.6c0,19.2,0,38.3,0,57.5c0,1.7-0.7,3-2.2,3.8c-14.4,7.9-28.7,15.9-43.1,23.8
		c-1.2,0.6-2.5,0.6-3.7,0c-14.4-7.9-28.8-15.8-43.2-23.7c-1.7-0.9-2.4-2.2-2.4-4.1c0-9.6,0-19.2,0-28.8c0-8.2,0-16.5,0-24.7
		C174.8,126.7,174.8,126.7,172.5,126.3z M84.3,130.2c0,0.4-0.1,0.6-0.1,0.8c0,16.4,0,32.9,0,49.3c0,0.4,0.4,1,0.8,1.3
		c11.7,6.5,23.4,12.9,35.2,19.3c0.4,0.2,0.8,0.3,1.3,0.6c0-0.4,0.1-0.7,0.1-0.9c0-16.3,0-32.6,0-48.9c0-0.5-0.4-1.1-0.8-1.4
		c-5.2-2.9-10.3-5.7-15.5-8.5c-0.4-0.2-0.7-0.3-1.3-0.6c0,3.6,0,6.9,0,10.4c-0.5-0.2-0.9-0.3-1.2-0.5c-2.1-1-4.1-2-6.2-2.9
		c-0.6-0.3-0.9-0.6-0.9-1.3c0-3.1,0-6.2,0-9.4c0-0.4-0.2-1-0.5-1.2C91.6,134.2,88,132.3,84.3,130.2z M133.9,47.4
		c0,0.4-0.1,0.6-0.1,0.8c0,16.4,0,32.8,0,49.2c0,0.8,0.3,1.1,0.9,1.4c11.8,6.5,23.6,12.9,35.4,19.4c0.3,0.2,0.6,0.2,1,0.4
		c0-0.5,0.1-0.7,0.1-1c0-16.2,0-32.5,0-48.7c0-0.9-0.4-1.3-1.1-1.6c-5.1-2.8-10.2-5.6-15.3-8.4c-0.3-0.2-0.7-0.3-1.2-0.6
		c0,3.6,0,6.9,0,10.5c-2.6-1.2-5-2.4-7.4-3.4c-0.7-0.3-0.9-0.7-0.9-1.4c0-2.6-0.1-5.3,0.1-7.9c0.1-1.8-0.4-2.7-2-3.5
		C140.2,50.9,137.2,49.1,133.9,47.4z M181.5,130.2c0,0.4-0.1,0.6-0.1,0.8c0,16.4,0,32.9,0,49.3c0,0.4,0.4,1,0.8,1.3
		c11.7,6.5,23.4,12.9,35.2,19.3c0.4,0.2,0.8,0.4,1.3,0.6c0-0.4,0.1-0.6,0.1-0.8c0-16.4,0-32.8,0-49.2c0-0.5-0.5-1.1-0.9-1.3
		c-5-2.8-10.1-5.6-15.1-8.3c-0.4-0.2-0.9-0.4-1.6-0.8c0,3.6,0,6.9,0,10.5c-2.9-1.4-5.6-2.6-8.3-3.9c0-3.4,0-6.8,0-10.2
		c0-0.4-0.2-1.1-0.5-1.3C188.8,134.2,185.2,132.2,181.5,130.2z M157.6,51.6c0.6,0.4,1,0.6,1.4,0.8c4.8,2.6,9.7,5.3,14.5,8
		c0.8,0.4,1.3,0.4,2.1,0c11.3-6.2,22.6-12.4,33.9-18.6c0.5-0.3,1-0.6,1.7-1c-0.4-0.3-0.6-0.4-0.9-0.6c-4.8-2.4-9.6-4.8-14.3-7.3
		c-1-0.5-1.7-0.5-2.7,0c-9.7,5.1-19.5,10.2-29.2,15.3C162,49.2,159.9,50.3,157.6,51.6z M161.5,124.7c-0.4-0.3-0.6-0.4-0.8-0.5
		c-5-2.6-10-5.1-15.1-7.6c-0.4-0.2-1.2-0.1-1.6,0.1c-11.8,6.1-23.5,12.2-35.3,18.4c-0.2,0.1-0.4,0.3-0.7,0.5
		c0.3,0.2,0.6,0.4,0.8,0.5c4.8,2.7,9.7,5.3,14.5,8c1.1,0.6,1.9,0.6,2.9,0c10.3-5.7,20.7-11.4,31.1-17.1
		C158.7,126.3,160,125.5,161.5,124.7z M205.2,135.5c0.4,0.3,0.6,0.4,0.7,0.5c5,2.7,10,5.4,14.9,8.2c1,0.6,1.7,0.4,2.6-0.1
		c9.7-5.4,19.5-10.7,29.2-16c2-1.1,4-2.2,6.3-3.4c-0.7-0.4-1.1-0.6-1.5-0.8c-4.7-2.4-9.4-4.7-14.1-7.2c-0.7-0.4-1.3-0.3-2,0
		c-9.9,5.2-19.9,10.4-29.9,15.6C209.4,133.3,207.4,134.4,205.2,135.5z M135.6,111.6c-0.2-0.2-0.4-0.4-0.5-0.5
		c-2.8-1.4-5.5-2.8-8.4-4.2c-0.3-0.2-0.9,0-1.3,0.1c-11.7,5.5-23.5,11.1-35.2,16.7c-0.6,0.3-1.2,0.6-1.9,1c0.4,0.3,0.5,0.4,0.7,0.5
		c3.1,1.7,6.2,3.4,9.2,5.1c0.7,0.4,1.3,0.2,1.9-0.1c11.5-6,23-12,34.5-18C134.9,112.1,135.2,111.8,135.6,111.6z M233.1,111.5
		c-3.3-1.7-6.3-3.2-9.3-4.7c-0.3-0.1-0.7,0-1,0.1c-12,5.7-24.1,11.4-36.1,17.2c-0.3,0.1-0.6,0.3-1.1,0.6c0.5,0.3,0.8,0.5,1.1,0.7
		c2.8,1.6,5.7,3.1,8.5,4.7c0.8,0.4,1.4,0.5,2.2,0c10.2-5.3,20.4-10.6,30.6-16C229.6,113.4,231.2,112.6,233.1,111.5z M187.8,28.8
		c-0.5-0.3-0.9-0.5-1.2-0.7c-2.4-1.2-4.8-2.4-7.1-3.7c-0.9-0.5-1.6-0.4-2.4,0c-11.9,5.7-23.9,11.4-35.8,17c-0.3,0.1-0.5,0.3-0.9,0.6
		c3.4,1.9,6.6,3.6,9.8,5.4c0.7,0.4,1.3,0.3,2,0c10.5-5.5,21.1-11,31.6-16.5C185.1,30.2,186.4,29.5,187.8,28.8z"/>
</g>
</svg>
