<?xml version="1.0" encoding="utf-8"?>
<!-- Generator: Adobe Illustrator 24.2.0, SVG Export Plug-In . SVG Version: 6.00 Build 0)  -->
<svg version="1.1" id="Layer_1" xmlns="http://www.w3.org/2000/svg" xmlns:xlink="http://www.w3.org/1999/xlink" x="0px" y="0px"
	 viewBox="0 0 350 225" style="enable-background:new 0 0 350 225;" xml:space="preserve">
<style type="text/css">
	.st0{fill:#FFFFFF;}
</style>
<g>
	<path class="st0" d="M245,196.5c-46.9,0-93.7,0-140.6,0c-0.5-1.3-1.4-2.7-1.4-4c-0.1-54.3-0.1-108.6,0-162.9c0-1.3,0.9-2.7,1.4-4
		c36.2,0,72.5,0,108.7,0c10.4,10.5,20.8,21,31.2,31.5c1.1,1.1,2.1,3,2.1,4.5c0.1,43.7,0.1,87.3,0,131
		C246.4,193.8,245.5,195.2,245,196.5z M241.7,191.1c0-42.9,0-85.5,0-128.4c-8,0-15.7,0-23.4,0c-7,0-8.4-1.4-8.4-8.4
		c0-7.7,0-15.4,0-23.3c-34.3,0-68.2,0-102.3,0c0,53.4,0,106.6,0,160.1C152.4,191.1,196.9,191.1,241.7,191.1z M214.8,57.7
		c7.5,0,15,0,22.1,0c-7.4-7.4-14.7-14.8-22.1-22.3C214.8,42.7,214.8,50,214.8,57.7z"/>
	<path class="st0" d="M174.9,79.5c17.1,0,34.2,0.1,51.3-0.1c3.3,0,4.4,1,4.4,4.3c-0.1,30.8-0.1,61.5,0,92.3c0,3.2-1.2,4.3-4.2,4.3
		c-34.4,0-68.8,0-103.3,0c-3.1,0-4.2-1.2-4.2-4.3c0.1-30.8,0.1-61.5,0-92.3c0-3.4,1.1-4.3,4.4-4.3C140.5,79.5,157.7,79.5,174.9,79.5
		z M123.7,103c0,24.2,0,48.1,0,72.2c8.3,0,16.3,0,24.6,0c0-24.2,0-48.1,0-72.2C140,103,131.9,103,123.7,103z M174.9,175.1
		c0-24.2,0-48.1,0-71.9c-7.4,0-14.5,0-21.7,0c0,24.1,0,47.9,0,71.9C160.5,175.1,167.5,175.1,174.9,175.1z M201.5,175.1
		c0-24.2,0-48.1,0-71.9c-7.4,0-14.5,0-21.6,0c0,24.1,0,47.9,0,71.9C187.2,175.1,194.2,175.1,201.5,175.1z M206.5,102.9
		c0,24.3,0,48.3,0,72.2c6.6,0,12.8,0,19.2,0c0-24.2,0-48.1,0-72.2C219.2,102.9,213.1,102.9,206.5,102.9z M225.7,84.2
		c-24.3,0-48.4,0-72.5,0c0,4.6,0,9,0,13.4c24.3,0,48.3,0,72.5,0C225.7,93.1,225.7,88.7,225.7,84.2z M148.3,97.6c0-4.5,0-8.9,0-13.3
		c-8.3,0-16.4,0-24.5,0c0,4.7,0,9,0,13.3C132.1,97.6,140.1,97.6,148.3,97.6z"/>
	<path class="st0" d="M150.1,43.5c-10.5,0-20.7,0-31,0c0-1.4,0-2.6,0-4.1c10.3,0,20.6,0,31,0C150.1,40.8,150.1,42,150.1,43.5z"/>
	<path class="st0" d="M119.1,54.2c0-1.5,0-2.7,0-4.1c1.4,0,2.6,0,4.2,0c0,1.3,0,2.6,0,4.1C121.8,54.2,120.6,54.2,119.1,54.2z"/>
	<path class="st0" d="M136.9,54.2c-1.4,0-2.6,0-4.1,0c0-1.4,0-2.7,0-4.1c1.4,0,2.6,0,4.1,0C136.9,51.4,136.9,52.6,136.9,54.2z"/>
</g>
</svg>
