<?xml version="1.0" encoding="utf-8"?>
<!-- Generator: Adobe Illustrator 24.2.0, SVG Export Plug-In . SVG Version: 6.00 Build 0)  -->
<svg version="1.1" id="Layer_1" xmlns="http://www.w3.org/2000/svg" xmlns:xlink="http://www.w3.org/1999/xlink" x="0px" y="0px"
	 viewBox="0 0 350 225" style="enable-background:new 0 0 350 225;" xml:space="preserve">
<style type="text/css">
	.st0{fill:#FFFFFF;}
</style>
<g>
	<path class="st0" d="M89.8,188.8c0-0.8,0-1.4,0-2c0-23.7,0-47.4,0-71c0-1.6,0.5-2.3,2-2.8c2.8-0.9,5.5-2.1,8.3-3c1.7-0.5,2-1.4,2-3
		c-0.1-19.7,0-39.4,0-59.1c0-0.8,0-1.5,0-2.4c7.1,0,14.1,0,21.2,0c0,18.5,0,37,0,55.9c12.2-4.5,24.2-9,36.4-13.5
		c0,6.8,0,13.4,0,20.5c18.5-6.9,36.7-13.6,55.2-20.5c0,6.4,0,12.5,0,18.9c17.1-6.3,33.8-12.5,50.8-18.8c0,33.7,0,67.3,0,100.9
		C207.1,188.8,148.6,188.8,89.8,188.8z M260.9,171.4c-55.5,0-110.8,0-166.1,0c0,4.3,0,8.4,0,12.5c55.5,0,110.8,0,166.1,0
		C260.9,179.7,260.9,175.6,260.9,171.4z M145.8,143.2c0-9.6,0-19.1,0-28.6c-8.3,0-16.4,0-24.6,0c0,9.6,0,19.1,0,28.6
		C129.4,143.2,137.5,143.2,145.8,143.2z M227.1,114.6c0,9.6,0,19.1,0,28.5c8.3,0,16.5,0,24.7,0c0-9.6,0-19,0-28.5
		C243.5,114.6,235.3,114.6,227.1,114.6z M175.3,143.2c8.3,0,16.5,0,24.7,0c0-9.6,0-19.1,0-28.5c-8.3,0-16.5,0-24.7,0
		C175.3,124.2,175.3,133.7,175.3,143.2z"/>
	<path class="st0" d="M143.9,15.4c1.4,0.6,2.8,1.3,4.2,1.9c-1.9,6.7-8,11-15.5,11.2c-4.1,0.1-8.2,0-12.3,0.3c-4.2,0.3-6.4,2.7-7,6.9
		c-0.2,1.1-0.3,2.3-0.5,3.5c-1.6-0.1-3-0.3-4.7-0.4c0-3.4,0.6-6.5,2.3-9.4c2.2-3.8,5.9-5.2,10-5.5c4.1-0.3,8.2-0.3,12.3-0.4
		c5.1-0.1,8.6-2.3,10.6-7C143.4,16.2,143.6,15.8,143.9,15.4z"/>
</g>
</svg>
