<?xml version="1.0" encoding="utf-8"?>
<!-- Generator: Adobe Illustrator 24.2.0, SVG Export Plug-In . SVG Version: 6.00 Build 0)  -->
<svg version="1.1" id="Layer_1" xmlns="http://www.w3.org/2000/svg" xmlns:xlink="http://www.w3.org/1999/xlink" x="0px" y="0px"
	 viewBox="0 0 350 225" style="enable-background:new 0 0 350 225;" xml:space="preserve">
<style type="text/css">
	.st0{fill:#FFFFFF;}
</style>
<g>
	<path class="st0" d="M228.2,27.2c4.3,1.5,6.1,4.6,5.7,9.1c-0.1,1.6,0,3.2,0,5.1c2,0,3.8,0,5.6,0c3.8,0,7.6,0,11.4,0
		c5.3,0.1,7.9,2.8,7.9,8c0,46.6,0,93.3,0,139.9c0,5.2-2.8,7.9-8,7.9c-49,0-98,0-147,0c-5.2,0-8-2.7-8-7.8c0-23.4,0-46.8,0-70.2
		c0-0.3,0-0.5,0.1-1.1c2.3,1.8,4.5,3.5,6.6,5.3c0.4,0.3,0.3,1.3,0.3,2c0,20.7,0,41.4,0,62.1c0,0.8,0,1.5,0,2.4
		c49.7,0,99.2,0,148.9,0c0-36.6,0-73.1,0-109.8c-20,0-40,0-60.1,0c0-2.4,0-4.5,0-6.9c20,0,40,0,60.1,0c0-8.4,0-16.6,0-25
		c-5.8,0-11.6,0-17.7,0c0,1.9-0.1,3.8,0,5.7c0.4,5.6-3.6,8.8-8.2,8.3c-1.9-0.2-3.8,0-5.7,0c-4.2,0-7.1-2.9-7.1-7.1c0-2.3,0-4.5,0-7
		c-1,0-1.7,0-2.4,0c-8.1,0-16.2,0-24.3,0c-1.7,0-2.8-0.3-3.6-1.9c-0.9-1.7-2.1-3.2-3.4-5.1c11.3,0,22.4,0,33.7,0
		c0-1.9,0.1-3.5,0-5.1c-0.4-4.5,1.3-7.5,5.6-9.1C221.6,27.2,224.9,27.2,228.2,27.2z M219.8,34.3c0,7,0,14,0,21.1c2.4,0,4.7,0,7.1,0
		c0-7.1,0-14.1,0-21.1C224.5,34.3,222.2,34.3,219.8,34.3z"/>
	<path class="st0" d="M85.1,73.4c0.6-3.1,1-6.1,1.7-9.2c1.6-6.3,4.5-12.1,8.4-17.3c0.4-0.6,0.8-1.2,1.2-1.8c0,0,0-0.1,0-0.4
		c-2.1,0-4.2,0-6.3,0c-2.3,0-3.8-1.3-3.8-3.3c-0.1-2.1,1.3-3.7,3.6-3.7c6.5-0.1,13.1,0,19.8,0c0.1,0.6,0.1,1.2,0.1,1.7
		c0,5.9,0,11.9,0,17.8c0,2.5-1.3,4.1-3.4,4.1c-2.1,0-3.5-1.6-3.5-4.1c0-2.7,0-5.4,0-8.7c-3.2,3.5-5.3,7.1-7,10.8
		c-11.2,24.8,3.9,53.8,30.7,58.9c23.7,4.5,46.2-10.8,50.2-34.6c4.1-24.4-12.4-45-33.9-49c-8.3-1.5-16.5-0.9-24.4,2.3
		c-2.3,0.9-4.3,0.2-5.1-1.7c-0.8-2,0.2-3.8,2.5-4.7c4.4-1.8,9-3,13.8-3.3c0.6,0,1.1-0.2,1.7-0.3c2.2,0,4.4,0,6.7,0
		c3.4,0.7,6.9,1.1,10.3,2c18.8,5.2,33.1,21.8,35.5,41c3.3,26.2-13.7,49.9-39.8,55.3C118,130.8,91.3,113.1,86.2,87
		c-0.4-2.3-0.8-4.6-1.2-6.9C85.1,77.9,85.1,75.7,85.1,73.4z"/>
	<path class="st0" d="M124.3,175.8c0-14.4,0-28.7,0-43.1c2.2,0.3,4.3,0.5,6.6,0.8c0,3.5,0,7,0,10.6c6.1,0,11.9,0,18,0
		c0-4.1,0-8.2,0-12.3c2.4-0.8,4.6-1.5,7-2.2c0,4.9,0,9.6,0,14.5c6,0,11.8,0,17.8,0c0-8.2,0-16.4,0-24.7c8.3,0,16.4,0,24.7,0
		c0-6,0-11.7,0-17.7c-4.1,0-8.3,0-12.6,0c0.9-2.3,1.7-4.4,2.6-6.4c0.1-0.3,0.8-0.7,1.2-0.7c13.4,0,26.8,0,40.2,0
		c0.1,0,0.2,0.1,0.4,0.2c0,26.9,0,53.8,0,80.9C194.9,175.8,159.7,175.8,124.3,175.8z M205.6,168.9c6,0,11.8,0,17.7,0
		c0-6,0-11.8,0-17.7c-6,0-11.8,0-17.7,0C205.6,157.1,205.6,162.9,205.6,168.9z M223.3,144.1c0-6,0-11.8,0-17.7c-6,0-11.8,0-17.7,0
		c0,5.9,0,11.8,0,17.7C211.6,144.1,217.3,144.1,223.3,144.1z M131.1,168.9c6,0,11.9,0,17.7,0c0-6,0-11.8,0-17.7c-6,0-11.8,0-17.7,0
		C131.1,157.2,131.1,163,131.1,168.9z M205.6,101.7c0,5.9,0,11.6,0,17.4c6,0,11.9,0,17.7,0c0-5.9,0-11.6,0-17.4
		C217.4,101.7,211.5,101.7,205.6,101.7z M180.8,126.5c0,5.9,0,11.7,0,17.7c5.7,0,11.3,0,16.8,0c0.3,0,0.8-0.6,0.9-1
		c0.1-5.5,0-11.1,0-16.7C192.6,126.5,186.8,126.5,180.8,126.5z M156,168.9c6,0,11.8,0,17.5,0c0-6,0-11.8,0-17.7
		c-5.9,0-11.7,0-17.5,0C156,157.2,156,163,156,168.9z M198.4,151.2c-5.9,0-11.8,0-17.6,0c0,6,0,11.8,0,17.7c5.9,0,11.7,0,17.6,0
		C198.4,163,198.4,157.2,198.4,151.2z"/>
	<path class="st0" d="M131.3,62.4c0-4.3,0-8.6,0-12.9c0-2.9,1.2-4.6,3.4-4.6c2.2-0.1,3.5,1.7,3.5,4.7c0,7.9,0,15.8,0,23.7
		c0,1.2,0.3,2,1.4,2.8c3.7,2.6,7.2,5.4,10.8,8.1c2.1,1.6,2.6,3.7,1.4,5.4c-1.3,1.7-3.3,1.8-5.5,0.2c-4.3-3.2-8.7-6.5-13-9.7
		c-1.3-0.9-1.9-2-1.8-3.6C131.3,71.7,131.3,67.1,131.3,62.4C131.3,62.4,131.3,62.4,131.3,62.4z"/>
</g>
</svg>
