<?xml version="1.0" encoding="utf-8"?>
<!-- Generator: Adobe Illustrator 24.2.0, SVG Export Plug-In . SVG Version: 6.00 Build 0)  -->
<svg version="1.1" id="Layer_1" xmlns="http://www.w3.org/2000/svg" xmlns:xlink="http://www.w3.org/1999/xlink" x="0px" y="0px"
	 viewBox="0 0 350 225" style="enable-background:new 0 0 350 225;" xml:space="preserve">
<style type="text/css">
	.st0{fill:#FFFFFF;}
</style>
<g>
	<path class="st0" d="M308.9,52c0,28.9,0,57.6,0,86.5c-65.8,0-131.5,0-197.3,0c0-28.8,0-57.5,0-86.5C177.2,52,242.9,52,308.9,52z"/>
	<path class="st0" d="M137.8,159.4c-2,5.7-3.1,6.5-8.9,6.5c-7,0-14.1,0-21.1,0c-5.8,0-7.1-1-8.8-6.5c-3.2,0-6.4,0-9.6,0
		c-2.3-12.1-8.1-18-17.4-18.2c-8.9-0.2-14.9,5.4-17.7,16.8c-3.7-0.4-7.4-0.7-11.1-1.3c-0.6-0.1-1.6-1.2-1.6-1.9
		c-0.1-13.2-0.2-26.4,0.1-39.6c0-2,1.9-3.9,3-5.9c0.6-1.1,1.5-2.2,1.6-3.4c0.2-4.5,0.1-9.1,0.1-13.7c-1.8-0.1-3.1-0.2-4.6-0.3
		c0-1.3,0-2.4,0-3.6c0.2,0.1,0.5,0.2,0.7,0.4c0.8-1.3,2-2.6,2.4-4c1.8-6.7,6.4-11.1,13.2-10.4c10.8,1,20.1-3.5,29.7-6.9
		c7.6-2.7,9.8-3.2,16.5-2.4c0,25.4,0,50.8,0,76.4c37.2,0,74,0,110.9,0c-7.4,3.7-11.4,9.4-11.4,18c-5.5,0-10.8,0-16.1,0
		c-1.5,0-2.4,0.3-3.3,1.7c-0.8,1.2-2.7,2.3-4.1,2.3c-9.4,0.2-18.8,0.2-28.3,0c-1.2,0-3.1-0.8-3.5-1.7c-1-2.6-3-2.5-5-2.4
		C141.5,159.5,139.7,159.4,137.8,159.4z M82.1,94.1c-9.5,0-18.7,0-27.8,0.1c-0.6,0-1.6,1.3-1.6,2c-0.2,3.8,0,7.5-0.1,11.3
		c-0.1,2.3,0.6,3.1,3,3.1c8.1-0.1,16.2,0,24.3-0.1c0.7,0,1.5-0.2,2.3-0.3C82.1,104.8,82.1,99.7,82.1,94.1z"/>
	<path class="st0" d="M263.7,173.1c-7.9,0-14.6-6.7-14.6-14.5c0.1-8.2,6.5-14.7,14.7-14.6c8.2,0,14.7,6.6,14.7,14.7
		C278.5,166.7,271.9,173.1,263.7,173.1z"/>
	<path class="st0" d="M235.2,158.5c0,8.1-6.3,14.5-14.3,14.6c-8.2,0-14.9-6.5-14.9-14.4c0-8.1,6.5-14.7,14.6-14.7
		C228.9,143.9,235.2,150.2,235.2,158.5z"/>
	<path class="st0" d="M57.2,158.2c0.1-8.1,6.7-14.5,15-14.3c8,0.1,14.4,6.8,14.2,14.8c-0.2,8.1-6.7,14.2-15.2,14.1
		C63.2,172.6,57.1,166.3,57.2,158.2z"/>
	<path class="st0" d="M310.8,158.9c-9.9,0-19.7,0-29.6,0c-0.2-8.2-4.1-13.9-12.4-17.2c14.3,0,28.1,0,42,0
		C310.8,147.4,310.8,153.1,310.8,158.9z"/>
	<path class="st0" d="M246.9,158.9c-2.9,0-5.8,0-8.6,0c-2.2-10.5-3.9-13-12.2-17.2c11,0,21.7,0,32.8,0
		C251,144.9,247,150.5,246.9,158.9z"/>
</g>
</svg>
