<?xml version="1.0" encoding="utf-8"?>
<!-- Generator: Adobe Illustrator 24.2.0, SVG Export Plug-In . SVG Version: 6.00 Build 0)  -->
<svg version="1.1" id="Layer_1" xmlns="http://www.w3.org/2000/svg" xmlns:xlink="http://www.w3.org/1999/xlink" x="0px" y="0px"
	 viewBox="0 0 600 400" style="enable-background:new 0 0 600 400;" xml:space="preserve">
<style type="text/css">
	.st0{fill:#FFFFFF;}
</style>
<g>
	<path class="st0" d="M322.7,149.1c2.3,0.4-4.3,12.3-8.4,18.3c-4,6.8-10.9,14.6-16.5,20.7C301.6,177.8,320.4,148.8,322.7,149.1z
		 M347.9,140.3c-10.6,3.3-31,36.8-37.9,58.6c-11.1,11.8-13.5,12.1-15.3,11.8c-3-0.5-3.1-2.8-3.1-4c0-2.3,1.5-5.5,3.4-8.6
		c0,0,4.9-5.5,4.9-5.5c6.5-7.3,13.2-14.9,18.9-23.7c0,0,2.3-4,2.3-4c3.9-6.5,8.3-13.8,8.3-18.6c0-0.7-0.1-1.3-0.3-1.8
		c-0.7-2.8-2.1-4.1-4.4-3.8c-10.8,3.3-29.7,34.1-36.5,55.6c-2,5.7-12.9,14.6-18.3,14.5c-0.5-0.1-1-0.2-1.3-0.7
		c-0.3-0.5-0.4-1.3-0.2-2c2.5-5.8,7.1-12,11-17.4c2.6-3.6,7.8-11.1,9.9-14.6l0.1-0.2l-0.2-0.2c-0.4-0.3-7.4-0.4-7.6-0.2l-0.1,0
		l-7.8,9.8c-6.7,7.8-13.6,15.8-22.3,20.8c-3.5,2.1-7,4.1-9.2,5.3c-1.3,0.7-1.6,0.9-1.8,1c-0.5,0.4-0.7,1-0.7,1.7
		c0,0.7,0.3,1.3,0.7,1.7l0.1,0.1l0.2,0c5.1-0.9,16.7-7.8,22.7-12.4c-0.2,0.5-0.5,1.2-0.8,1.7c-0.6,1.2-0.8,1.7-0.8,1.9
		c0,0,0-0.1,0-0.1c-1.1,3.1-0.6,7.5,2.3,8.7l0,0l0,0c7.6,1.5,18.8-7.1,20.9-9c0.3,4.5,1.8,8.2,7.5,9.1c4.5,0.7,10.4-2.2,17.4-9.6
		c0,0.2,0,0.4,0,0.5c0,4.5,2.3,8.1,5.8,9c2.4,0.6,10.8,0.8,19.4-20.6c1.1,1.1,3.3,3.1,5.9,3.7c-1.3,3.3-2.1,5.8-2.1,8.1
		c0,2.1,0.7,4,2.5,6.1c3.7,4.2,11,3.8,17.4-1.4c4.5-3.6,8.9-8.6,13.1-14.7c2.6-3.8,8.1-12.1,10.3-15.6c0.1-0.1,0.1-0.1,0.1-0.2
		c0.2,1.1,0.6,3.6,4,4.6c-3.1,4.1-10,11.4-11.1,21.2c0,0.4,0,1.2,0,1.8c0.3,2.4,1.2,5.1,3.8,6.6c2.6,1.4,9.2,0.5,20.4-12
		c0,0.4,0.1,0.7,0.1,1.1c0,0.5,0,1,0,1.6c0,0.5,0,1.1,0.1,1.7c0.3,5,2.5,6.6,2.5,6.6c7.3,5.6,18.6-4.2,25.9-15.9
		c3.3-5.3,7-11.3,5.1-12.5l-0.3-0.2l-0.2,0.3c-4.6,6.7-15.6,24.9-22.7,24.9c-1.1,0-1.7-1-2-2.8c-0.1-0.5-0.1-1-0.1-1.5
		c0-3.9,2.1-8.2,3.8-11.8l0.7-1.4c4-6.7,11.6-18.9,12.5-19.8c0.3,0,22.3,0,22.3,0c0.4,0,0.8-0.4,1.3-1.2c0.5-1,1.1-2.7,0.5-3.5
		c-0.2-0.2-0.5-0.4-1-0.3c-12.4,0-16.3-0.1-20.5-0.3c0.1-0.4,7.1-11.6,12.1-19.8l-8.8,0.2c-2.9,4.6-8.7,15.4-11.9,19.8
		c-0.7,0.1-5,0-8.8,0c-5.8-0.1-9.3-0.1-10,0c0,0,0,0-0.1,0c0,0,0,0,0,0c0,0,0,0,0,0c-0.3,0-0.7,0.3-1.1,0.9
		c-0.6,0.8-1.3,2.2-1.3,3.3c0,0.2,0,0.5,0.1,0.7l0,0.1l0,0c0.2,0.2,0.3,0.2,12.4,0.1c2.1,0,4,0,4.9,0c-3.3,6.4-12.1,21.9-20.2,29.6
		c0,0-3.3,3.2-3.3,3.2c-2.7,2.3-6,5.2-8.2,4.3c-0.9-0.3-1.1-1-1.3-1.5c-2.3-5.5,6.6-17,9.4-20.8c1.4-1.9,3.1-3.7,3.8-4.9l0.1-0.2
		L395,183c-0.1-0.2-0.3-0.2-1-0.2c-1,0-2.9,0-5-0.7c-3.2-1.6-2.6-3.4-1.4-6l0.1-0.2l-0.1-0.2c-0.8-1.2-2.9-1.4-6.2-0.7l-0.2,0
		c-0.7,0-1.6,1.4-5.3,7.3c-4.3,6.8-10.7,17.2-17.2,23.4c-3,2.8-8.5,7.1-12.5,3.8c-0.7-0.6-1.1-1.8-1.1-3.1c0-2.4,1-5.4,2.5-7.4
		c7.4-1,18.6-7.6,21.7-14.3c0.9-1.9,1.2-3.5,1.2-4.7c0-2.3-1.2-3.6-2.4-4.4c-1.1-0.6-3.2-1.1-6-0.3c-4.4,1.2-11.2,5.4-18.7,18.9
		c-4.7-1.8-5.7-4.5-6.3-6c-0.2-0.5-0.3-0.8-0.5-1.1l-0.1-0.2l-0.2,0.1c-0.3,0.1-2.4,0.1-3.6,0.2c-2.3,0-2.3,0-2.4,0.3l-0.1,0.1
		l0,0.1c0.9,5.1-3.2,14.2-7.6,19.4c-1.9,2.3-3.7,3.6-4.9,3.6c-0.9,0-1.6-0.3-1.9-0.9c-0.3-0.5-0.5-1.2-0.5-1.9c0-2.8,1.8-7,2.6-8.9
		c0,0,0.3-0.6,0.3-0.7c0.1-0.1,3.4-3.9,3.4-3.9c7.1-8,14.4-16.4,20.4-25.9c0,0,2.4-4,2.4-4c3.9-6.5,8.3-13.8,8.3-18.6
		c0-0.7-0.1-1.3-0.3-1.8C351.7,141.3,350.2,140,347.9,140.3z M240.4,212.2C240.4,212.2,240.4,212.2,240.4,212.2
		C240.4,212.2,240.4,212.2,240.4,212.2C240.4,212.2,240.4,212.2,240.4,212.2z M240.4,212.3C240.4,212.3,240.4,212.2,240.4,212.3
		C240.4,212.2,240.4,212.3,240.4,212.3z M365.2,180.3c0.7,0.1,1.1,0.6,1.3,1.3h0c0,0.1,0,0.2,0,0.4c0,0.6-0.3,1.4-1,2.3
		c-3,4.2-11.4,9.7-15.7,10.5C359.6,181,363.8,180,365.2,180.3z M367.2,181.4L367.2,181.4L367.2,181.4L367.2,181.4z M345.9,149.2
		c0.1,0,0.1,0,0.1,0.1c0,0.1,0.1,0.2,0.1,0.4c0,2.5-5,11.6-8.8,17.3c-3,5.1-8,11.4-15.2,19.3C327.2,174.1,344,149.2,345.9,149.2z"/>
	<path class="st0" d="M286.3,165.6c0.8-2.6,3.5-4.7,6.1-4.8c2.5-0.1,4,1.9,3.1,4.5c-0.8,2.5-3.5,4.7-6.1,4.8
		C286.9,170.2,285.5,168.2,286.3,165.6z"/>
	<path class="st0" d="M238.3,194.6c3.6-12.2,13.7-44.4,21-58.7c-2.9,0-5.7,0-7.3,0c-14.9,19.7-26.6,33.1-47.9,58.3
		c2.8-5.4,2.4-6.3,9.3-19.5c6.9-13.3,17.8-28.8,9-46.6c-5-7.8-14.3-11.4-23.7-10.8c-28.3,1.6-52.2,23.5-57.6,51.5
		c-2.4,12.2-1.3,28.3,8.4,36.9c3.6,3,8.3,3.6,12.6,3.5c6.9-1.1,10.9-4.1,15.6-14c-3.1,3-13.5,9.1-21.2,4.2
		c-7.2-5.1-10-14.3-10.1-23.5c-1-23,19.6-47.9,43.2-52.7c30-6.1,27.9,20.2,25.9,27.2c-2,7.1-30.9,64.8-30.9,64.8c0,0,9.2,0,9.2,0
		c12.6-17.4,44.1-52.5,44.1-52.5c-4.7,14.6-12.9,44.3-14.7,50.8c0,0,0,0,0,0l0,0c-0.2,0.8-0.6,1.7-0.6,1.7s8.8,0,9.5,0
		c4.4-7.7,54.9-89.1,135.2-89.1l7.3-10.4C374.4,115.7,305.3,109.2,238.3,194.6z"/>
	<g>
		<path class="st0" d="M432.4,205c3.1,0,5.5,2.5,5.5,5.6c0,3.2-2.5,5.7-5.6,5.7c-3.1,0-5.6-2.5-5.6-5.7
			C426.8,207.5,429.3,205,432.4,205L432.4,205z M432.4,205.9c-2.5,0-4.5,2.1-4.5,4.8c0,2.7,2,4.8,4.5,4.8c2.5,0,4.5-2.1,4.5-4.8
			S434.9,205.9,432.4,205.9L432.4,205.9z M431.4,213.9h-1v-6.3c0.5-0.1,1-0.2,1.8-0.2c1,0,1.6,0.2,2,0.5c0.4,0.3,0.6,0.7,0.6,1.3
			c0,0.8-0.6,1.3-1.2,1.5v0.1c0.6,0.1,0.9,0.6,1.1,1.5c0.2,1,0.3,1.4,0.4,1.6h-1.1c-0.2-0.2-0.3-0.8-0.4-1.6
			c-0.2-0.8-0.6-1.1-1.4-1.1h-0.7V213.9z M431.4,210.4h0.7c0.8,0,1.5-0.3,1.5-1.1c0-0.6-0.4-1.1-1.5-1.1c-0.3,0-0.6,0-0.7,0V210.4z"
			/>
	</g>
</g>
<g>
	<path class="st0" d="M124,254.5c0.1-0.3,0.1-0.5,0.4-0.5c0.2,0,0.3,0.1,0.3,0.4c0,0.2-0.3,1.4-0.5,2.7c-2,1-4.4,1.7-6.7,1.7
		c-4.5,0-7.7-2.9-7.7-7.8c0-7,5.1-12.5,11.8-12.5c1.5,0,3.1,0.3,4.5,0.8c-0.2,2.5-0.3,2.6-0.6,2.6c-0.3,0-0.3-0.2-0.4-0.4
		c-0.1-1.6-2.7-2-3.9-2c-4.8,0-8.9,4.5-8.9,10.9c0,4,1.8,7.3,6.2,7.3C121.2,257.7,123.7,255.9,124,254.5z"/>
	<path class="st0" d="M134.6,244.8c2.5,0,3.9,1.9,3.9,4.5c0,5.2-3.4,9.4-7.2,9.4c-2.5,0-3.9-1.9-3.9-4.5
		C127.4,249,130.9,244.8,134.6,244.8z M132,257.8c3.2,0,4.2-5.2,4.2-7.8c0-1.6-0.3-4.3-2.3-4.3c-3.2,0-4.2,5.2-4.2,7.8
		C129.7,255,130,257.8,132,257.8z"/>
	<path class="st0" d="M139.3,246.3c1.4-1,3.6-1.6,4.4-1.6c0.1,0,0.3,0,0.3,0.6c0,1.1-0.4,3.6-0.6,5l0.1,0.1c0.8-1.9,3.2-5.7,5.1-5.7
		c1.1,0,1.9,1.1,1.9,2.8c0,0.5-0.1,1.8-0.2,2.9l0.1,0.1c0.8-1.9,3.2-5.7,5.4-5.7c1.1,0,1.9,1.1,1.9,2.8c0,1-0.2,3-0.5,4.8
		c-0.3,1.8-0.5,3.4-0.5,3.7c0,0.7,0.2,0.8,0.4,0.8c0.4,0,1.5-0.7,2-1l0.3,0.6c-1.8,1.7-3.8,2.1-4.3,2.1c-0.2,0-0.6-0.2-0.6-1.3
		c0-0.7,0.9-7.4,0.9-8.9c0-1.4-0.3-1.7-0.9-1.7c-0.6,0-3.9,2.5-4.8,9.1l-0.3,2.4h-2.2c0.6-4.4,1.2-8.9,1.2-9.9
		c0-0.8-0.1-1.7-0.8-1.7c-1.1,0-4,2.9-4.8,8.9l-0.4,2.6h-2.2c0.6-3.7,1.1-7.4,1.4-10.9c0-0.7-0.1-1-0.4-1c-0.3,0-1.1,0.3-1.7,0.8
		L139.3,246.3z"/>
	<path class="st0" d="M159.7,246.3c1.4-1,3.6-1.6,4.4-1.6c0.1,0,0.3,0,0.3,0.6c0,1.1-0.4,3.6-0.6,5l0.1,0.1c0.8-1.9,3.2-5.7,5.1-5.7
		c1.1,0,1.9,1.1,1.9,2.8c0,0.5-0.1,1.8-0.2,2.9l0.1,0.1c0.8-1.9,3.2-5.7,5.4-5.7c1.1,0,1.9,1.1,1.9,2.8c0,1-0.2,3-0.5,4.8
		c-0.3,1.8-0.5,3.4-0.5,3.7c0,0.7,0.2,0.8,0.4,0.8c0.4,0,1.5-0.7,2-1l0.3,0.6c-1.8,1.7-3.8,2.1-4.3,2.1c-0.2,0-0.6-0.2-0.6-1.3
		c0-0.7,0.9-7.4,0.9-8.9c0-1.4-0.3-1.7-0.9-1.7c-0.6,0-3.9,2.5-4.8,9.1l-0.3,2.4h-2.2c0.6-4.4,1.2-8.9,1.2-9.9
		c0-0.8-0.1-1.7-0.8-1.7c-1.1,0-4,2.9-4.8,8.9l-0.4,2.6h-2.2c0.6-3.7,1.1-7.4,1.4-10.9c0-0.7-0.1-1-0.4-1c-0.3,0-1.1,0.3-1.7,0.8
		L159.7,246.3z"/>
	<path class="st0" d="M183.1,253.6c0,1.8,0.5,3.8,2.6,3.8c1.5,0,2.9-1.1,4-2.1l0.3,0.5c-1.4,1.6-3.4,2.8-5.5,2.8
		c-2.8,0-3.8-2.3-3.8-5c0-4.2,3-8.9,7.2-8.9c1.2,0,2,0.4,2,1.7v0.8c0.6-0.5,0.9-1,1.1-1c0.1,0,0.1,0.1,0.1,0.2c0,0.2,0,0.5-0.1,0.7
		c-1.2,1.2-5.6,4.1-7.8,5.7V253.6z M187.9,248.6c0.1-0.4,0.1-0.8,0.1-1.4c0-0.7-0.2-1.5-1.1-1.5c-2.5,0-3.9,4.1-3.9,6.3L187.9,248.6
		z"/>
	<path class="st0" d="M191,246.3c1.4-1,3.6-1.6,4.4-1.6c0.1,0,0.3,0,0.3,0.6c0,1.1-0.4,3.6-0.6,5l0.1,0.1c0.8-1.9,3.2-5.7,5.1-5.7
		c1.1,0,1.9,1.1,1.9,2.8c0,0.5-0.1,1.8-0.2,2.9l0.1,0.1c0.8-1.9,3.2-5.7,5.4-5.7c1.1,0,1.9,1.1,1.9,2.8c0,1-0.2,3-0.5,4.8
		c-0.3,1.8-0.5,3.4-0.5,3.7c0,0.7,0.2,0.8,0.4,0.8c0.4,0,1.5-0.7,2-1l0.3,0.6c-1.8,1.7-3.8,2.1-4.3,2.1c-0.2,0-0.6-0.2-0.6-1.3
		c0-0.7,0.9-7.4,0.9-8.9c0-1.4-0.3-1.7-0.9-1.7c-0.6,0-3.9,2.5-4.8,9.1l-0.3,2.4h-2.2c0.6-4.4,1.2-8.9,1.2-9.9
		c0-0.8-0.1-1.7-0.8-1.7c-1.1,0-4,2.9-4.8,8.9l-0.4,2.6h-2.2c0.6-3.7,1.1-7.4,1.4-10.9c0-0.7-0.1-1-0.4-1c-0.3,0-1.1,0.3-1.7,0.8
		L191,246.3z"/>
	<path class="st0" d="M219.2,244.8c2.5,0,3.9,1.9,3.9,4.5c0,5.2-3.4,9.4-7.2,9.4c-2.5,0-3.9-1.9-3.9-4.5
		C212,249,215.4,244.8,219.2,244.8z M216.6,257.8c3.2,0,4.2-5.2,4.2-7.8c0-1.6-0.3-4.3-2.3-4.3c-3.2,0-4.2,5.2-4.2,7.8
		C214.3,255,214.6,257.8,216.6,257.8z"/>
	<path class="st0" d="M224.6,246.3c1.4-1,3.6-1.6,4.4-1.6c0.1,0,0.3,0,0.3,0.6c0,1.1-0.4,3.6-0.6,5l0.1,0.1c1.3-2.9,3-5.7,5-5.7
		c0.5,0,1.1,0.2,1.1,0.9c0,0.8-0.8,1-1.4,1c-0.4,0-0.8-0.1-1.1-0.3c-0.6,0.2-3.3,2.9-4.2,9.1l-0.4,2.6h-2.2
		c0.6-3.7,1.1-7.4,1.4-10.9c0-0.7-0.1-1-0.4-1c-0.3,0-1.1,0.3-1.7,0.8L224.6,246.3z"/>
	<path class="st0" d="M247.3,256.6c-1.8,1.7-3.8,2.1-4.3,2.1c-0.2,0-0.6-0.2-0.6-1.3c0-1,0.1-2.4,0.3-4h-0.1
		c-0.9,2.2-2.9,5.2-5.3,5.2c-2,0-2.7-2.3-2.7-4c0-4.9,3.6-9.7,8.2-9.7c0.6,0,1.5,0.1,2.3,0.2c0-0.8,0.1-0.9,1.1-0.9
		c-0.7,3.7-1.3,7.4-1.5,12.1c0,0.7,0.2,0.8,0.4,0.8c0.4,0,1.5-0.7,2-1L247.3,256.6z M243.3,248.7l0.4-2.8c-0.3-0.1-0.6-0.2-0.9-0.2
		c-3.6,0-5.9,3.8-5.9,8.3c0,1,0.2,2.9,1.6,2.9C239.8,256.9,242.4,254.9,243.3,248.7z"/>
	<path class="st0" d="M251.9,245.3h2.7l-0.1,0.8h-2.7c-0.7,3.5-1.3,7.5-1.3,9.5c0,0.7,0.1,1.6,0.9,1.6c0.7,0,1.7-0.5,2.6-1.2
		l0.3,0.6c-1.1,1-2.9,2-4.3,2c-1.3,0-1.8-0.9-1.8-2.2c0-2.6,0.7-7,1.4-10.3h-1.5l0.1-0.8c0.5,0,1.1,0,1.4-0.2
		c0.5-0.3,1.6-2.7,2.1-3.7l0.8-0.1L251.9,245.3z"/>
	<path class="st0" d="M255.3,246.3c1.4-1,3.6-1.6,4.4-1.6c0.1,0,0.3,0,0.3,0.6c0,0.9-1.2,10-1.2,10.9c0,0.7,0.2,0.8,0.4,0.8
		c0.4,0,1.5-0.7,2-1l0.3,0.6c-1.8,1.7-3.8,2.1-4.3,2.1c-0.2,0-0.6-0.2-0.6-1.3c0-0.7,1.1-9.5,1.1-10.2c0-0.7-0.1-1-0.4-1
		c-0.3,0-1.1,0.3-1.7,0.8L255.3,246.3z M257.8,241.2c0-0.9,0.8-1.8,1.6-1.8c0.6,0,0.9,0.5,0.9,1.1c0,0.8-0.7,1.8-1.5,1.8
		C258.2,242.3,257.8,241.8,257.8,241.2z"/>
	<path class="st0" d="M263.1,258.1c0.6-3.7,1.1-7.4,1.4-10.9c0-0.7-0.1-1-0.4-1c-0.3,0-1.1,0.3-1.7,0.8l-0.2-0.6
		c1.4-1,3.6-1.6,4.4-1.6c0.1,0,0.3,0,0.3,0.6c0,1.1-0.4,3.6-0.6,5l0.1,0.1c0.8-1.9,3.2-5.7,5.3-5.7c1.5,0,2,1.4,2,2.8
		c0,2.1-0.9,7.8-0.9,8.5c0,0.7,0.2,0.8,0.4,0.8c0.4,0,1.5-0.7,2-1l0.3,0.6c-1.8,1.7-3.8,2.1-4.3,2.1c-0.2,0-0.6-0.2-0.6-1.3
		c0-0.7,0.9-7.4,0.9-8.9c0-1.4-0.3-1.7-0.9-1.7c-1.1,0-4,2.9-4.8,8.9l-0.4,2.6H263.1z"/>
	<path class="st0" d="M280.2,258.4L280.2,258.4c-0.8-0.5-1.9-1.1-1.9-2.2c0-0.8,0.7-1.7,1.1-2.2c-1.5-0.6-2.1-1.7-2.1-3.4
		c0-3,2.5-5.8,5.4-5.8c0.9,0,1.5,0.2,2.1,0.4c0.6,0.2,1.1,0.4,1.7,0.4c0.8,0,1-0.3,1.1-0.5c0.1-0.3,0.2-0.5,0.5-0.5
		c0.1,0,0.2,0.1,0.2,0.3c0,0.2,0,0.6-0.2,1.2c-0.1,0.7-0.2,0.8-1.9,0.6c0.2,0.6,0.3,1.1,0.3,1.7c0,3.2-2.5,5.9-5.5,5.9
		c-0.3,0-0.5-0.1-0.7-0.1c-0.3,0.3-0.5,0.6-0.5,1c0,0.8,1,1.4,3.5,2.3c1.8,0.6,4.3,1.4,4.3,3.9c0,2.6-3.1,4.5-7.1,4.5
		c-2,0-5.2-0.5-5.2-3.3C275.2,260.1,278.2,258.7,280.2,258.4z M277.2,262.2c0,2.2,2.1,2.9,3.8,2.9c1.7,0,4.4-0.9,4.4-3.1
		c0-0.9-0.2-1.9-4.2-3.1C279.6,259.2,277.2,260.1,277.2,262.2z M281.4,253.3c2.3,0,2.9-2.8,2.9-4.8c0-1.3-0.4-3-1.9-3
		c-2.1,0-3,2.5-3,4.4C279.4,251.4,279.7,253.3,281.4,253.3z"/>
	<path class="st0" d="M294.5,257.2h1.3c0.2,0,0.5-0.1,0.6-0.5c0.9-7,1.9-14.4,1.9-15.8c0-0.8-0.3-0.9-0.7-0.9h-1.5l0.1-0.9h6.6
		l-0.1,0.9h-1.3c-0.2,0-0.5,0.1-0.6,0.5c-0.8,6.8-1.9,14.5-1.9,15.5c0,0.5,0,1,0.9,1h1.8c3.5,0,5.7,0,6.6-1.6
		c0.1-0.2,0.1-0.3,0.3-0.3c0.2,0,0.3,0.1,0.3,0.3c0,0.4-0.2,1.1-0.7,2.7h-13.8L294.5,257.2z"/>
	<path class="st0" d="M309.5,246.3c1.4-1,3.6-1.6,4.4-1.6c0.1,0,0.3,0,0.3,0.6c0,0.9-1.2,10-1.2,10.9c0,0.7,0.2,0.8,0.4,0.8
		c0.4,0,1.5-0.7,2-1l0.3,0.6c-1.8,1.7-3.8,2.1-4.3,2.1c-0.2,0-0.6-0.2-0.6-1.3c0-0.7,1.1-9.5,1.1-10.2c0-0.7-0.1-1-0.4-1
		c-0.3,0-1.1,0.3-1.7,0.8L309.5,246.3z M312.1,241.2c0-0.9,0.8-1.8,1.6-1.8c0.6,0,0.9,0.5,0.9,1.1c0,0.8-0.7,1.8-1.5,1.8
		C312.5,242.3,312.1,241.8,312.1,241.2z"/>
	<path class="st0" d="M321.3,246.1c-0.4,4-1,10.5-1.2,12c-0.3,1.5-1.3,7.4-6.2,7.4c-0.8,0-1.8-0.5-1.8-1.2c0-0.5,0.5-0.8,0.9-0.8
		c0.7,0,1.3,0.5,1.7,1.1c2.5-0.2,3.1-4.3,3.2-5.4c0.1-1.1,0.7-5.9,1.4-13.2h-1.9l0.1-0.8h1.8l0.3-2.2c0.6-3.7,2.4-6.4,5.5-6.4
		c0.5,0,1.7,0.3,1.7,1.2c0,0.5-0.4,0.7-0.8,0.7c-0.7,0-1.1-0.5-1.6-1c-1.9,0.2-2.7,2.9-3,7.7h2.2l-0.1,0.8H321.3z"/>
	<path class="st0" d="M326.6,253.6c0,1.8,0.5,3.8,2.6,3.8c1.5,0,2.9-1.1,4-2.1l0.3,0.5c-1.4,1.6-3.4,2.8-5.5,2.8
		c-2.8,0-3.8-2.3-3.8-5c0-4.2,3-8.9,7.2-8.9c1.2,0,2,0.4,2,1.7v0.8c0.6-0.5,0.9-1,1.1-1c0.1,0,0.1,0.1,0.1,0.2c0,0.2,0,0.5-0.1,0.7
		c-1.2,1.2-5.6,4.1-7.8,5.7V253.6z M331.5,248.6c0.1-0.4,0.1-0.8,0.1-1.4c0-0.7-0.2-1.5-1.1-1.5c-2.5,0-3.9,4.1-3.9,6.3L331.5,248.6
		z"/>
	<path class="st0" d="M338.8,246.6c1.1-0.9,3.2-1.9,3.6-1.9c0.2,0,0.3,0.1,0.5,0.7c0.1,0.4,1.1,2.9,1.5,9.7h0.1
		c1.7-2.6,3.4-6,4.3-9.4c0.1-0.3,0.2-0.5,0.4-0.5c0.2,0,0.3,0.1,0.4,0.5c0.3,0.8,1.1,2.9,2.3,9.5c1.8-2.4,3.1-6.6,3.1-8.4
		c0-1-1-0.6-1-1.1c0-0.3,0.2-0.4,0.4-0.4h2.2c-0.3,2.2-1.4,7.3-5.5,13c-0.2,0.2-0.3,0.5-0.6,0.5c-0.3,0-0.3-0.3-0.4-0.7
		c-0.1-2.8-0.8-5.9-1.6-8.5c-1,2.2-4.1,7.6-5,8.7c-0.2,0.2-0.3,0.5-0.6,0.5c-0.3,0-0.3-0.3-0.4-0.7c-0.3-6.7-1.2-11.5-2-11.5
		c-0.3,0-0.9,0.2-1.5,0.5L338.8,246.6z"/>
	<path class="st0" d="M357.9,246.3c1.4-1,3.6-1.6,4.4-1.6c0.1,0,0.3,0,0.3,0.6c0,0.9-1.2,10-1.2,10.9c0,0.7,0.2,0.8,0.4,0.8
		c0.4,0,1.5-0.7,2-1l0.3,0.6c-1.8,1.7-3.8,2.1-4.3,2.1c-0.2,0-0.6-0.2-0.6-1.3c0-0.7,1.1-9.5,1.1-10.2c0-0.7-0.1-1-0.4-1
		c-0.3,0-1.1,0.3-1.7,0.8L357.9,246.3z M360.4,241.2c0-0.9,0.8-1.8,1.6-1.8c0.6,0,0.9,0.5,0.9,1.1c0,0.8-0.7,1.8-1.5,1.8
		C360.8,242.3,360.4,241.8,360.4,241.2z"/>
	<path class="st0" d="M369.5,245.3h2.7l-0.1,0.8h-2.7c-0.7,3.5-1.3,7.5-1.3,9.5c0,0.7,0.1,1.6,0.9,1.6c0.7,0,1.7-0.5,2.6-1.2
		l0.3,0.6c-1.1,1-2.9,2-4.3,2c-1.3,0-1.8-0.9-1.8-2.2c0-2.6,0.7-7,1.4-10.3h-1.5l0.1-0.8c0.5,0,1.1,0,1.4-0.2
		c0.5-0.3,1.6-2.7,2.1-3.7l0.8-0.1L369.5,245.3z"/>
	<path class="st0" d="M373.3,238.3c1.3-0.8,3.6-1.3,4.6-1.3c0.2,0,0.3,0.1,0.3,0.6c0,1.6-0.9,7.9-1.6,12.8l0.1,0.1
		c0.8-1.9,3.2-5.7,5.3-5.7c1.5,0,2,1.4,2,2.8c0,2.1-0.9,7.8-0.9,8.5c0,0.7,0.2,0.8,0.4,0.8c0.4,0,1.5-0.7,2-1l0.3,0.6
		c-1.8,1.7-3.8,2.1-4.3,2.1c-0.2,0-0.6-0.2-0.6-1.3c0-0.7,0.9-7.4,0.9-8.9c0-1.4-0.3-1.7-0.9-1.7c-1.1,0-4,2.9-4.8,8.9l-0.4,2.6
		h-2.2c1.4-9.7,2.3-17.5,2.3-19c0-0.4,0-0.8-0.4-0.8c-0.3,0-0.8,0.1-1.9,0.6L373.3,238.3z"/>
	<path class="st0" d="M394.1,239.1h7.2c4.6,0,5.2,2.9,5.2,4.6c0,2.8-2.4,4.8-4.8,5.5c1.5,3.6,4,7.3,5,7.9c0.3,0.2,0.5,0.2,1.4,0.2
		l-0.1,0.9h-3.5c-0.8,0-4.1-6.8-4.8-8.5h-2.1c-0.3,2.4-0.8,5.5-0.8,6.7c0,0.8,0.3,0.9,0.7,0.9h1.5l-0.1,0.9h-6.6l0.1-0.9h1.3
		c0.2,0,0.5-0.1,0.6-0.5c0.9-7,1.9-14.4,1.9-15.8c0-0.8-0.3-0.9-0.7-0.9H394L394.1,239.1z M399.1,248.7c2.4,0,5.1-1.3,5.1-5
		c0-3.1-2-3.6-4.8-3.6c-0.4,0-0.6,0.2-0.6,0.4l-1,8.2H399.1z"/>
	<path class="st0" d="M411.1,253.6c0,1.8,0.5,3.8,2.6,3.8c1.5,0,2.9-1.1,4-2.1l0.3,0.5c-1.4,1.6-3.4,2.8-5.5,2.8
		c-2.8,0-3.8-2.3-3.8-5c0-4.2,3-8.9,7.2-8.9c1.2,0,2,0.4,2,1.7v0.8c0.6-0.5,0.9-1,1.1-1c0.1,0,0.1,0.1,0.1,0.2c0,0.2,0,0.5-0.1,0.7
		c-1.2,1.2-5.6,4.1-7.8,5.7V253.6z M416,248.6c0.1-0.4,0.1-0.8,0.1-1.4c0-0.7-0.2-1.5-1.1-1.5c-2.5,0-3.9,4.1-3.9,6.3L416,248.6z"/>
	<path class="st0" d="M426.9,246.9c-0.8,0-1.5-0.5-1.8-1.3c-2,0-2.7,1.2-2.7,2.2c0,2.5,5.2,3.4,5.2,7.1c0,2.5-2.8,3.8-4.8,3.8
		c-1,0-3.6-0.5-3.6-1.9c0-0.5,0.4-0.8,0.9-0.8c0.9,0,1.6,0.8,1.9,1.7c0.3,0.2,0.5,0.2,0.8,0.2c1.4,0,2.6-0.8,2.6-2.3
		c0-2.6-5-3.9-5-6.8c0-2.5,2.7-3.9,4.8-3.9c0.7,0,2.7,0.3,2.7,1.4C427.8,246.7,427.4,246.9,426.9,246.9z"/>
	<path class="st0" d="M429,246.3c1.4-1,3.6-1.6,4.4-1.6c0.1,0,0.3,0,0.3,0.6c0,0.8-0.1,2.8-0.5,4.6h0.1c0.9-2.1,2.8-5.2,5.2-5.2
		c2.1,0,2.7,2.4,2.7,4.4c0,4.9-3.6,9.5-8.5,9.5h-0.7c-0.2,1.8-0.6,4.7-0.6,5.5c0,0.8,0.3,0.9,0.7,0.9h2.3l-0.1,0.8h-6.6l0.1-0.8h0.7
		c0.2,0,0.5-0.1,0.6-0.4c0.2-1.2,2.2-16.6,2.2-17.5c0-0.7-0.1-1-0.4-1c-0.3,0-1.1,0.3-1.7,0.8L429,246.3z M432.2,257.7
		c0.3,0.1,0.7,0.1,1.2,0.1c2.1,0,5.6-2.5,5.6-8.3c0-0.9-0.2-3-1.5-3c-1.7,0-3.3,3.1-3.9,4.5C432.9,252.7,432.6,254.7,432.2,257.7z"
		/>
	<path class="st0" d="M444.9,253.6c0,1.8,0.5,3.8,2.6,3.8c1.5,0,2.9-1.1,4-2.1l0.3,0.5c-1.4,1.6-3.4,2.8-5.5,2.8
		c-2.8,0-3.8-2.3-3.8-5c0-4.2,3-8.9,7.2-8.9c1.2,0,2,0.4,2,1.7v0.8c0.6-0.5,0.9-1,1.1-1c0.1,0,0.1,0.1,0.1,0.2c0,0.2,0,0.5-0.1,0.7
		c-1.2,1.2-5.6,4.1-7.8,5.7V253.6z M449.7,248.6c0.1-0.4,0.1-0.8,0.1-1.4c0-0.7-0.2-1.5-1.1-1.5c-2.5,0-3.9,4.1-3.9,6.3L449.7,248.6
		z"/>
	<path class="st0" d="M462.5,256.2c-1.3,1.5-3.3,2.5-5.2,2.5c-2.7,0-3.9-1.9-3.9-4.7c0-4.8,3.7-9.2,7.4-9.2c0.6,0,2.3,0.3,2.3,1.2
		c0,0.6-0.5,0.8-1,0.8c-0.8,0-1.5-0.5-1.9-1.2c-3.1,0.7-4.3,4.9-4.3,7.9c0,1.9,0.4,4,2.5,4c1.4,0,2.8-0.8,3.8-1.8L462.5,256.2z"/>
	<path class="st0" d="M468.3,245.3h2.7l-0.1,0.8h-2.7c-0.7,3.5-1.3,7.5-1.3,9.5c0,0.7,0.1,1.6,0.9,1.6c0.7,0,1.7-0.5,2.6-1.2
		l0.3,0.6c-1.1,1-2.9,2-4.3,2c-1.3,0-1.8-0.9-1.8-2.2c0-2.6,0.7-7,1.4-10.3h-1.5l0.1-0.8c0.5,0,1.1,0,1.4-0.2
		c0.5-0.3,1.6-2.7,2.1-3.7l0.8-0.1L468.3,245.3z"/>
	<path class="st0" d="M474.9,244.5C474.9,244.5,474.9,244.6,474.9,244.5c-0.1,0.1-0.1,0-0.1,0c0-0.3-0.6-0.4-0.9-0.4
		c-0.7,0-1,0.5-1,0.9c0,1.3,2.4,0.8,2.4,2.5c0,0.9-0.8,1.5-1.7,1.5c-0.3,0-0.8-0.1-1.1-0.2c-0.1-0.4-0.1-0.6-0.1-0.7
		c0-0.1,0-0.1,0.1-0.1c0.1,0,0.1,0.1,0.1,0.1c0.1,0.4,0.8,0.6,1.1,0.6c0.6,0,1.2-0.3,1.2-1c0-1.5-2.3-0.8-2.3-2.5
		c0-0.8,0.8-1.3,1.6-1.3c0.2,0,0.5,0,0.8,0.1V244.5z"/>
	<path class="st0" d="M476.2,244.7c0-0.3-0.1-0.6-0.3-0.6h-0.3V244h1l1.7,4l1.6-4h0.9v0.2h-0.3c-0.1,0-0.2,0-0.2,0.1v3.2
		c0,1.1,0.1,1.1,0.2,1.1h0.4v0.2h-1.5v-0.2h0.3c0.1,0,0.1,0,0.1-0.1v-3.9l0,0l-1.6,4.1c0,0,0,0,0,0c0,0,0,0-0.1-0.1l-1.7-4h0v2.8
		c0,1.1,0.1,1.1,0.2,1.1h0.4v0.2h-1.3v-0.2h0.3c0.1,0,0.1,0,0.1-0.1V244.7z"/>
</g>
</svg>
